<?xml version="1.0" encoding="UTF-8"?>
<svg id="Layer_2" data-name="Layer 2" xmlns="http://www.w3.org/2000/svg" viewBox="0 0 332.17 416.79">
  <polygon points="32.95 410.08 114.28 410.08 135.94 370.67 91.22 308.03 32.95 410.08" fill="#a50101" opacity=".94"/>
  <polygon points="266.6 349.91 279.83 329.98 266.6 316.74 266.6 349.91" fill="#3167bc" opacity=".94"/>
  <polygon points="266.6 355.74 305.59 355.74 282.06 332.21 266.6 355.74" fill="#3167bc" opacity=".94"/>
  <polygon points="183.17 265.79 195.37 245.51 151.8 201.95 91.22 308.03 135.94 370.67 166.72 314.68 264.54 314.68 215.65 265.79 183.17 265.79" fill="#3167bc" opacity=".94"/>
  <polygon points="266.6 206.79 313.26 284.74 282.06 332.21 305.59 355.74 332.17 355.74 332.17 246.08 266.6 180.5 266.6 206.79" fill="#01991f" opacity=".94"/>
  <polygon points="332.17 133.97 332.17 0 266.6 0 266.6 4.52 266.28 1.5 242.08 43.87 332.17 133.97 332.17 133.97" fill="#460161" opacity=".94"/>
  <polygon points="242.08 43.87 201.33 115.23 246.54 160.45 266.6 127.12 266.6 180.5 332.17 246.08 332.17 133.97 242.08 43.87" fill="#999" opacity=".94"/>
  <polygon points="151.8 201.95 195.37 245.51 246.54 160.45 201.33 115.23 151.8 201.95" fill="#01991f" opacity=".94"/>
  <polygon points="266.6 265.79 215.65 265.79 264.54 314.68 266.6 314.68 266.6 316.74 279.83 329.98 310.43 283.91 266.6 214.35 266.6 265.79" fill="#01991f" opacity=".94"/>
</svg>