<?xml version="1.0" encoding="UTF-8"?>
<svg id="Layer_2" data-name="Layer 2" xmlns="http://www.w3.org/2000/svg" viewBox="0 0 202.59 207.86">
  <defs>
    <style>
      .cls-1 {
        stroke: #070808;
      }

      .cls-1, .cls-2, .cls-3, .cls-4, .cls-5, .cls-6, .cls-7, .cls-8, .cls-9, .cls-10, .cls-11, .cls-12, .cls-13, .cls-14, .cls-15, .cls-16, .cls-17, .cls-18, .cls-19 {
        stroke-miterlimit: 10;
      }

      .cls-1, .cls-12 {
        fill: #eae4e5;
        stroke-width: .25px;
      }

      .cls-2 {
        stroke: #da1e34;
      }

      .cls-2, .cls-3, .cls-5, .cls-8, .cls-11, .cls-13, .cls-17, .cls-18, .cls-19 {
        fill: #f4f4f5;
      }

      .cls-3 {
        stroke: #454fa1;
      }

      .cls-4 {
        fill: #fff;
      }

      .cls-4, .cls-7, .cls-9 {
        stroke: #fff;
      }

      .cls-4, .cls-14 {
        stroke-width: 4px;
      }

      .cls-5 {
        stroke: #da1f35;
      }

      .cls-6 {
        stroke: #e2dcdc;
      }

      .cls-6, .cls-7, .cls-16 {
        fill: #231f20;
      }

      .cls-8 {
        stroke: #ec9529;
      }

      .cls-9 {
        fill: #000;
      }

      .cls-10, .cls-14 {
        fill: #d14097;
        stroke: #d14097;
      }

      .cls-11 {
        stroke: #cddc2b;
      }

      .cls-20 {
        fill: #f1b166;
        stroke-width: 0px;
      }

      .cls-12 {
        stroke: #050606;
      }

      .cls-13 {
        stroke: #ccdb2a;
      }

      .cls-15 {
        fill: #5f63ad;
        stroke: #454da1;
      }

      .cls-16 {
        stroke: #f9f9fa;
      }

      .cls-17 {
        stroke: #f7f7f7;
      }

      .cls-18 {
        stroke: #454ea1;
      }

      .cls-19 {
        stroke: #eb952c;
      }
    </style>
  </defs>
  <g id="Artboard_3" data-name="Artboard 3">
    <path class="cls-20" d="M171.29,161.33c-3.23-9.89,1.71-21.31,11.01-25.69.67-.31,1.34-.59,2.02-.85-1.02-.92-1.94-1.93-2.71-3.03-4.26-6.11-3.81-14.63,1.22-20.18,1.76-1.94,3.82-3.27,6.05-4.16-2.06-2.56-2.98-5.88-1.85-10.03,1.39-5.13,6.57-9.17,11.08-11.48,1.47-.75,2.97-1.36,4.49-1.86C192.75,37.75,151.64,3.02,102.42,3.02,45.85,3.02,0,48.88,0,105.44s45.85,102.42,102.42,102.42c31.33,0,59.36-14.08,78.14-36.24-4.25-2.15-7.73-5.59-9.27-10.29Z"/>
    <path class="cls-10" d="M89.89,69.16c-2.18,3.44-4,10.24-2.28,10.39,1.28.11,4.13-6.01,7-8.89,2.77-2.78,11.89-6.78,2.44-4-1.56.46-5.4-.27-7.17,2.5Z"/>
    <path class="cls-10" d="M177.56,169.78c-2.21-1.62-4.04-3.69-5.3-6.18-2.68,2.37-4.76,5.03-5.72,9.05-1.9,8.02,1.57,16.84,3.21,16.88.92.02,2.33-2.74,2.37-5.31.04-2.54-1.26-4.01-.31-5.44.63-.95,1.88-1.3,2.31-1.42,1.7-.48,2.38.31,3.05-.14,1.38-.93-.9-4.63.39-7.43Z"/>
    <path class="cls-10" d="M54.94,191.49c.22.15-1.99,2.54-1.65,2.12,5.24-6.54,5.06-5.23,3.77-2.96-.51.9-.28,2,.48,2.71.89.82.58,3.75.28,3.85-4.79,1.67-7.67-1.52-9.08-4.29-1.22-2.39-4.03-.43-5.99-2.62-3.28-3.69-.4-5.44-7.39-11.42-4-3.42-10.21-4.68-9.33-7.76.33-1.17-1.18-1.76-.97-4.69.06-.81.75-2.72-.23-4.58-1.66-3.14-2.72-6.51-2.23-6.84.03-.02.05-.03.1-.03.92-.02,4.93,2.13,4.98,4.7.04,2.54-1.26,4.01-.3,5.44.63.95,1.87,1.3,2.3,1.42,1.7.48,2.37-.31,3.04.14,1.43.97,6.97,2.53,3.35,6.11-1.51,1.49-.13,2.9,2.62,4,5.61,2.25,7.04,1.29,8.41,1.83h0c-.27,0,.87.56.87.56,1.44.47,9.11,6.59,8.22,9.45-.09.3-1.84,2.48-1.26,2.88Z"/>
    <path class="cls-10" d="M3.84,104.36c-1.11.08-2.06,6.56-1.97,9.14.06,1.88.78,2.82,1.75,5.09,1.78,4.13,2.29,7.74,2.56,9.56.76,5.28-.37,6.37,1.11,8.89,1.28,2.18,3.8,1.42,4.22,4.44.65,4.68,2.32,6.68,3.4,6.68.08,0-6.97-44.09-11.07-43.79Z"/>
    <path class="cls-10" d="M6.21,75.33c-.83,1.72-1.05,8.57-1.83,10.08-.81,1.57-2.77,1.29-1.33,5.58.06.19,1.32-1.49-.51,1.82-.38.69-.72,11.51.35,12.84.62.78,1.2-7.96,1.4-7.96,4.01,0,9.81-8.28,7.33-12.67-1.51-2.68-4.15-12.29-5.4-9.71Z"/>
    <path class="cls-10" d="M131.37,75.86c.28,2.53-1.7,5.81-4.33,6.25-2.15.36-4.79-1.19-5.08-2.83-.17-.94.5-1.53.08-2.5-.36-.84-1.04-.81-1.87-1.63-1.11-1.1-.8-2.04-1.63-3.87-1.11-2.44-2.7-3.02-2.5-3.42.59-1.13,14.66,1.87,15.33,8Z"/>
    <path class="cls-10" d="M60.87,189.94c.05.74,8.61,3.91,9.17,7.87.17,1.18,3.32,2.55,3.64,2.72,2.08,1.11,4.82.77,7.22,1.33,4.36,1.02,6.07-.48,13.33-1.33,4.96-.58,8.05,2.56,15.83,3.17,4.91.38,8.83-.63,16.67-2.67,8.06-2.09,14.24-3.77,19.83-9,3.11-2.91,4.92-4.6,4.53-6.06-2.66-9.99-68.13,1.92-75.7,5.71-.66.33-14.64-3.43-14.53-1.73Z"/>
    <path class="cls-14" d="M171.29,161.33c-3.23-9.89,1.71-21.31,11.01-25.69.67-.32,1.35-.6,2.03-.85-1.02-.92-1.94-1.92-2.72-3.03-4.26-6.11-3.81-14.63,1.22-20.18,1.76-1.94,3.82-3.27,6.05-4.16-2.06-2.56-2.99-5.88-1.86-10.03,1.39-5.13,6.57-9.17,11.08-11.48.37-.19.75-.35,1.12-.53-5.46-30.79-26.06-51.47-30.23-55.44-6.11-5.82-29.63-26.99-66.27-27.91-38.13-.96-64.59,24.29-68.53,28.16-3.55,3.49-29.3,30.63-29.3,70.2,0,54.33,43.8,98.37,97.83,98.37,28.43,0,54.01-12.21,71.88-31.68-1.45-1.64-2.6-3.56-3.32-5.76Z"/>
    <g>
      <path class="cls-1" d="M48.5,103.14c-.64.17-1.33.25-1.99.45-.18.06-.64.11-1.37.27-.2.04-.45.11-.73.17-.01-.22-.03-.46-.03-.7,0-.15.01-.31.01-.46.04-.76.1-1.6.11-2.37.01-.52.03-1.02.03-1.54,0-.31,0-.62-.01-.95-.01-.29-.01-.79-.01-1.07-.17.04-.35.1-.52.13-.07-.5-.2-1.04-.15-1.57.11-.03.18-.07.27-.1.24-.06.38-.1.6-.14.21-.06.41-.1.62-.14.25-.06.5-.11.77-.18.67-.15,1.98-.5,2.56-.56.06.34.14.87.17,1.57-.2.03-.41.06-.59.1-.67.14-1.53.35-2.28.53v.28c0,.63.01,1.47.01,2.09v.25c.24-.06.46-.1.7-.15.49-.11,1.08-.22,1.57-.32.04.34.13,1.08.08,1.61-.25.06-.52.11-.71.14-.39.07-.81.13-1.22.21-.17.03-.32.07-.5.13-.01.28-.01.56-.01.83,0,.21,0,.41.01.6.52-.13.97-.21,1.44-.32.56-.13,1.2-.29,1.75-.41.01.36.04.91.03,1.51-.21.04-.48.1-.6.13Z"/>
      <path class="cls-1" d="M54.36,101.99c0,.73-.42,1.42-1.12,1.75-.32.15-.74.22-1.11.25-.42.03-1.06-.01-1.39-.17-.34-.15-.6-.35-.8-.59-.08-.07-.17-.18-.27-.34-.11-.21-.18-.56-.18-.88,0-.21.03-.43.1-.59.48-.04,1.22.03,1.49.06-.06.35-.04.55.1.73.18.21.46.31.73.31.31,0,.62-.07.84-.29.24-.25-.56-.67-1-.95-.6-.36-.92-.62-1.47-1.02-.43-.35-.6-1.06-.6-1.67,0-.29.06-.57.11-.74.36-1.02,1.44-2.24,2.82-2.24.46,0,.95.15,1.21.64.2.45.22.83.21,1.33,0,.2-.03,1.33-.1,1.57-.21.01-.42.03-.63.03-.36,0-.62-.03-.8-.04,0-.14.07-1.15.07-1.26,0-.28-.01-.39-.06-.59-.29,0-1.01.48-1.13.85-.06.18-.08.32-.08.46,0,.63.59.83,1.22,1.3.49.38.95.56,1.4.98.32.28.45.77.45,1.11Z"/>
      <path class="cls-1" d="M57.67,97.4c-.03.91-.03,1.78-.03,2.66,0,.64.01,1.27.01,1.81v1.89c-.53.11-1.19.11-1.54.11,0-.27.03-.58.03-.83.01-.21.01-.41.01-.63,0-.28,0-.57-.01-.88-.01-.39-.01-.88-.01-1.37v-2.46c-.46.13-.91.22-1.37.34-.07-.41-.11-1.12-.15-1.47.35-.13.71-.24,1.06-.34.32-.07.62-.15.92-.2.53-.1,1.08-.18,1.6-.31.27-.07.57-.08.87-.1.04.29.1.98.11,1.5-.18.06-.38.08-.56.13-.32.06-.63.1-.94.15Z"/>
      <path class="cls-1" d="M60.55,102.09s.14,1.29.14,1.48c0,0-1.19.24-1.36.29-.14.04-.46.14-.46.14l-.25-1.46s.67-.24,1.01-.31c.34-.06.9-.14.92-.15Z"/>
    </g>
    <g>
      <path class="cls-12" d="M149.01,103.81c-.46.07-.92.13-1.39.21-.84.14-1.68.34-2.54.46-.18.03-.69.14-.98.18-.35-.49-.45-.84-.63-1.23.11-.22.43-.73.56-.95.35-.6.57-1.09.9-1.61.36-.57.71-1.13,1.05-1.72.32-.55.7-1.11.85-1.7.07-.25.13-.67-.13-.85-.21-.17-.62-.1-.87-.01-.59.2-.95.59-1.04,1.16-.03.18-.04.35-.04.53s.01.36.03.55c-.62.08-1.21.1-1.55.1-.03-.38,0-.74.04-1.09.04-.45.14-.91.35-1.33.38-.78,1.13-1.23,2.02-1.43.34-.1.76-.17,1.15-.17.45,0,.87.08,1.16.38.45.43.66,1.05.56,1.65-.24,1.6-1.33,2.94-2.13,4.34-.17.31-.34.63-.52.95-.11.21-.17.45-.27.66.64-.15,1.5-.29,2.14-.42.29-.06.56-.13.83-.2.11.29.32.87.43,1.54Z"/>
      <path class="cls-12" d="M148.84,99.93c0-.38.04-.78.06-1.09.03-.5.15-.91.31-1.3.48-1.19,1.51-2.14,2.79-2.27,1.16-.11,2.07,1.11,2.61,2.09.32.62.42,1.27.42,1.96v.46c0,.56-.01,1.12-.18,1.68-.2.63-.49,1.3-.95,1.81-.24.27-.5.48-.81.63-.35.2-.84.31-1.22.36-.43.06-.97-.22-1.29-.48-1-.8-1.42-1.88-1.67-3.18-.04-.2-.06-.43-.06-.67ZM150.32,99.88c0,.31.04.63.14.94.14.39.27.91.53,1.23.21.28.67.67,1.08.62.45-.07.91-.59,1.11-.98.27-.5.38-1.12.38-1.68s0-1.09-.22-1.61c-.2-.5-.42-1.06-.9-1.4-.2-.14-.53-.18-.76-.04-.21.11-.42.31-.57.46-.39.41-.57.9-.67,1.44-.07.32-.11.69-.11,1.02Z"/>
      <path class="cls-12" d="M161.4,103.81c-.46.07-.92.13-1.39.21-.84.14-1.68.34-2.54.46-.18.03-.69.14-.98.18-.35-.49-.45-.84-.63-1.23.11-.22.43-.73.56-.95.35-.6.57-1.09.9-1.61.36-.57.71-1.13,1.05-1.72.32-.55.7-1.11.85-1.7.07-.25.13-.67-.13-.85-.21-.17-.62-.1-.87-.01-.59.2-.95.59-1.04,1.16-.03.18-.04.35-.04.53s.01.36.03.55c-.62.08-1.21.1-1.55.1-.03-.38,0-.74.04-1.09.04-.45.14-.91.35-1.33.38-.78,1.13-1.23,2.02-1.43.34-.1.76-.17,1.15-.17.45,0,.87.08,1.16.38.45.43.66,1.05.56,1.65-.24,1.6-1.33,2.94-2.13,4.34-.17.31-.34.63-.52.95-.11.21-.17.45-.27.66.64-.15,1.5-.29,2.14-.42.29-.06.56-.13.83-.2.11.29.32.87.43,1.54Z"/>
      <path class="cls-12" d="M164.83,96.85c0,.31-.03.76-.03,1.08-.03.8-.06,1.44-.06,2.24-.01.78-.06,1.54-.08,2.3-.01.59.04,1.18.04,1.77-.52.11-1.21.13-1.65.13,0-.13.01-.25.01-.34.08-1.67.2-3.32.24-4.99v-.57c0-.45,0-.91-.01-1.37-.07.06-.14.11-.22.17-.22.15-.46.32-.7.5-.11.08-.2.17-.29.25-.27-.36-.62-1.04-.76-1.33.17-.11.42-.24.57-.34.25-.17.58-.36.97-.71.1-.1.2-.18.29-.27.1-.08.11-.1.18-.17l1.54-.04c.01.2,0,.38,0,.55-.03.39-.03.76-.04,1.15Z"/>
    </g>
    <circle class="cls-4" cx="102.72" cy="100.39" r="31.67"/>
    <path class="cls-20" d="M73.46,83.99c-.41-.48,2.28-3.77,3.39-5.12.99-1.21,1.88-2.12,2.51-2.72,1.15-1.11,2.12-1.85,2.73-2.34.88-.7,2.04-1.49,2.58-1.84.98-.64,2.17-1.27,3.72-2.05,1.53-.71,4.35-1.82,6.76-2.32,1.79-.37,2.9-.54,3.66-.63,0,0,.44-.05.89-.09,3.65-.33,7.1.07,7.1.07,1.23.15,3.74.51,6.78,1.53,1.15.39,4.21,1.49,7.54,3.62.86.55,2.27,1.51,3.88,2.89.43.37.94.83,1.5,1.38.4.39,1.09,1.08,1.76,1.86,1.07,1.24,3.26,3.77,2.94,4.24-.81,1.18-15.43-14.55-31.24-13.42-14.49,1.04-25.63,15.94-26.48,14.94Z"/>
    <path class="cls-10" d="M128.26,73.6c.28,2.53-1.7,5.81-4.33,6.25-2.15.36-4.79-1.19-5.08-2.83-.17-.94.5-1.53.08-2.5-.36-.84-1.04-.81-1.87-1.63-1.11-1.1-.8-2.04-1.63-3.87-1.11-2.44-2.7-3.02-2.5-3.42.59-1.13,14.66,1.87,15.33,8Z"/>
    <ellipse class="cls-11" cx="149.65" cy="125.17" rx="3.6" ry=".28"/>
    <ellipse class="cls-3" cx="16.51" cy="99.35" rx="3.6" ry=".28" transform="translate(-82.3 79.86) rotate(-69.41)"/>
    <ellipse class="cls-18" cx="117.32" cy="52.63" rx="3.6" ry=".28" transform="translate(26.78 143.94) rotate(-69.41)"/>
    <ellipse class="cls-5" cx="178.33" cy="79.55" rx=".28" ry="3.6" transform="translate(-11.66 124.63) rotate(-37.39)"/>
    <ellipse class="cls-17" cx="77.97" cy="53.78" rx=".28" ry="3.6" transform="translate(1.06 109.06) rotate(-70.31)"/>
    <ellipse class="cls-17" cx="99.2" cy="146.19" rx="3.6" ry=".28" transform="translate(-72.54 187.63) rotate(-69.41)"/>
    <ellipse class="cls-18" cx="55.31" cy="127.16" rx=".28" ry="3.6" transform="translate(-81.38 150.51) rotate(-76.18)"/>
    <ellipse class="cls-9" cx="163.69" cy="36.94" rx="4" ry="1.44" transform="translate(40.74 151.13) rotate(-55.6)"/>
    <ellipse class="cls-8" cx="26.3" cy="61.49" rx=".28" ry="3.6" transform="translate(-40.11 53.52) rotate(-60)"/>
    <ellipse class="cls-2" cx="29.29" cy="142.82" rx=".28" ry="3.6" transform="translate(-116.39 137.15) rotate(-76.18)"/>
    <ellipse class="cls-19" cx="143.46" cy="68.72" rx=".28" ry="3.6" transform="translate(42.47 191.62) rotate(-76.18)"/>
    <ellipse class="cls-13" cx="55.31" cy="75.42" rx="3.6" ry=".28" transform="translate(-26.7 120.37) rotate(-82.47)"/>
    <ellipse class="cls-15" cx="42.94" cy="168.98" rx="3.6" ry=".28" transform="translate(-130.34 149.74) rotate(-69.41)"/>
    <ellipse class="cls-19" cx="136.58" cy="155.82" rx="3.6" ry=".28" transform="translate(-66.66 196.2) rotate(-60)"/>
    <ellipse class="cls-5" cx="82.39" cy="7.97" rx=".28" ry="3.6" transform="translate(12.09 51.67) rotate(-37.39)"/>
    <ellipse class="cls-17" cx="104.56" cy="46.3" rx="3.6" ry=".28" transform="translate(47.29 145.27) rotate(-83.83)"/>
    <ellipse class="cls-3" cx="185.33" cy="101.21" rx="3.6" ry=".28" transform="translate(25.39 239.1) rotate(-69.41)"/>
    <path class="cls-13" d="M78.04,162.11c-.15-.02-.07-1.64.19-3.61s.6-3.56.75-3.54.07,1.64-.19,3.61-.6,3.56-.75,3.54"/>
    <ellipse class="cls-18" cx="127.66" cy="136.69" rx=".28" ry="3.6" transform="translate(-35.56 228.01) rotate(-76.18)"/>
    <ellipse class="cls-13" cx="31.12" cy="116.19" rx="3.6" ry=".28" transform="translate(-57.74 35.12) rotate(-32.63)"/>
  </g>
  <g id="Artboard_3:_Courtney_Text" data-name="Artboard 3: Courtney Text">
    <g>
      <path class="cls-6" d="M54.23,53.82c.42.94.32,4.1.19,5.28-.13,1.49-.79,2.56-1.52,3.81-.97,1.62-3.36,3.04-5.52,3.6-2.6.59-5,.47-7.86-.25-1.51-.33-2.86-1.02-4.03-1.94-.83-.65-1.61-1.45-2.29-2.29-1.26-1.66-3.13-4.1-4.05-5.8-1.11-2.16-1.8-3.61-2.41-5.86-.56-2.09-.54-5.06-.06-7,.29-.99,1.07-2.15,1.95-2.8.79-.54,2.1-1.28,3.77-.52,2.06.95,3.62,1.92,5.41,3.45.34.27.94.74,1.74,1.36,1.21.95,2.79,2.19,4.26,3.59-.93,1.34-2.38,3.26-2.98,4.25-1.72-1.54-3.84-3.2-5.33-4.49-.8-.69-3.72-2.8-3.73-.92-.06,1.48.15,2.38.48,3.43.77,2.13,2.26,4.58,3.6,6.61.62.92,1.69,2.12,2.56,2.8.8.69,2.37,1.49,3.37,1.54,2,.1,4.3.2,5.86-.71,1.25-.73,1.67-2.05,1.69-3.55.05-.69,0-2.5-.16-3.06.99-.32,3.38-.65,5.06-.54Z"/>
      <path class="cls-6" d="M58.44,36.32c1.62,1.84,2.94,3.92,3.64,5.35.61,1.24.96,2.33,1.16,3.67.29,1.39.25,2.75-.04,4.12-.25,1.41-.92,2.41-1.87,3.21-.37.31-.8.61-1.26.88-4.07,2.25-9.12.36-12.18-3.03-2.68-2.95-4.48-6.64-5.22-9.67-.58-2.47-.51-6.11,1.29-8.07,1.46-1.61,3.64-1.94,5.73-1.7,1.28.17,3.03.83,4.23,1.51,1.71,1.13,2.84,1.87,4.53,3.72ZM54.19,39.47c-.34-.4-.62-.73-1.45-1.35-1.02-.83-4.27-2.67-4.99-.55-.51,1.63.49,3.92,1.19,5.34.41.85,1.23,2.04,2.12,3.11.81.95,1.72,1.81,2.47,2.25,1,.59,3.69,1.54,4.41.17.76-1.4-.31-3.64-.85-4.87-.46-.99-2.21-3.28-2.89-4.09Z"/>
      <path class="cls-6" d="M77.81,43.31c-1.15-.53-2.07-1.73-2.8-2.59-.76,1.93-2.08,4.27-3.96,5.43-1.01.65-2.5,1.23-3.74.75-2.06-.8-3.7-4.28-4.83-6.4-.34-.64-.68-1.38-.94-2.06-.54-1.12-1.11-2.29-1.62-3.44-.39-.83-3.81-8.25-4.11-9.12-.23-.64-.46-1.17-.54-1.72,1.12-.55,3.2-1.44,4.93-1.98.12.43.34.85.49,1.32,1.89,5.68,4.51,11.09,7.31,16.34.16.3.66,1.33,1.27,1.06.21-.11.4-.38.56-.68.25-.46.32-.83.44-1.11.58-1.45.67-2.21,1.2-3.36-.7-1.1-1.25-1.94-1.94-3.43-.11-.21-.48-1-1-1.97l-.97-1.82c-1.92-3.6-3.26-6.21-4.64-8.79.73-.66,2.45-2.23,4.25-3.36,6.16,12.05,6.32,12.35,6.51,12.8.39.83.79,1.59,1.22,2.39,1.51,2.84,3.78,5.55,5.87,7.53-.15.95-1.37,2.42-2.98,4.2Z"/>
      <path class="cls-6" d="M95.15,35.36c-.99,1.9-2.44,3.73-3.09,4.44-.46-.23-.94-.55-1.43-.91-.74-.55-1.51-1.19-2.1-1.93-.41-.44-1.07-1.21-1.88-2.23-.28-.32-2.34-3.01-2.34-3.01,0,0-.59.4-.86.68.34,1.1.78,2.77,1.11,3.83.35,1.15.69,2.05,1.04,3.2-1.47.84-3.29,1.82-5,2.12-.17-.45-.3-.96-.43-1.43-.23-.88-.4-1.68-.65-2.46-.33-1.05-.54-2.04-.81-3.06-.41-1.73-.84-3.35-1.19-5.05-.24-1.08-.97-4.21-1.26-5.52-.36-1.35-.95-3.57-1.33-5.01-.58.05-1.22.27-1.85.34-.17-.65-.41-1.53-.53-2.19-.26-.97-.36-2.09-.37-2.88.79-.21,1.65-.34,2.36-.48,1-.17,1.92-.26,2.84-.35,3.56-.44,7.28.31,10.22,2.41.74.55,1.46,1,2.08,1.68.48.52.86,1.01,1.14,1.69.62,1.42,1.23,3.15-.5,6.19-.53.99-1.31,1.79-2.08,2.64.93,1.44,2.36,3.3,3.5,4.59.58.69,1.25,1.16,1.9,1.73.5.37,1.02.67,1.5.99ZM81.19,18.64c-.31-.06-.72-.11-1.12-.1.14.91.34,1.85.55,2.83.31,1.16.96,3.82,1.37,5.55.75-.55,1.59-1.12,2.33-1.91,1.58-1.71,1.94-2.8,1.73-3.59-.17-.65-.75-1.14-1.48-1.65-1.23-.72-2.08-.94-3.38-1.14Z"/>
      <path class="cls-6" d="M102.43,15.34c0,3.12.09,6.1.18,9.12.07,2.21.18,4.36.24,6.19.04,1.2.07,2.45.11,3.65.02.62.04,1.2.06,1.87,0,.29.02.62.03.96-1.81.44-4.07.51-5.27.54-.03-.91.04-1.97.01-2.83.03-.72,0-1.39-.02-2.16-.03-.96-.06-1.97-.14-3.02-.09-1.34-.14-3.02-.19-4.7-.06-1.92-.12-3.84-.17-5.66-.03-1.01-.06-1.97-.08-2.78-1.57.48-3.1.86-4.67,1.29-.28-1.38-.5-3.83-.68-5.02,1.19-.47,2.42-.89,3.61-1.26,1.1-.27,2.09-.59,3.15-.77,1.81-.39,3.67-.73,5.44-1.22.9-.27,1.96-.35,2.96-.43.17,1,.44,3.35.54,5.12-.62.21-1.29.33-1.91.49-1.1.23-2.15.4-3.2.62Z"/>
      <path class="cls-6" d="M116.41,35.98c-.08-.36-.25-1.27-.56-3.23-.23-1.12-.67-3.16-1.27-4.88-.18-.57-.5-1.22-.65-1.74-.33,1.21-.61,2.42-.83,3.6-.4,2.07-.67,4.03-.94,6.22-.11.57-.2,1.28-.31,2.14-.84.04-3.5-.37-5-.66.41-1.88.87-3.79,1.23-5.68.5-2.59.76-4.5,1.21-7.1.43-2.26.91-4.52,1.34-6.78.22-1.13.79-4.15.98-5.68,1.57-.04,3.2-.12,5.01-.12.13,4.42.62,7.79,2.07,11.98.62-3.25,1.11-6.58,1.56-9.97.11-.81.32-1.94.46-2.65.92-.22,3.98.12,5.14.2-.92,4.56-1.99,9.69-2.98,14.87-.84,4.39-.99,7.48-1.31,11.72-1.78.35-3.97.32-4.85.34-.05-.5-.23-2.15-.29-2.6Z"/>
      <path class="cls-6" d="M132.15,43.11c-3.21-.45-6.09-1.29-9.02-1.88-.67-.14-1.52-.24-2.47-.45.22-.74.5-1.4.81-2.11.23-.53.46-1.06.73-1.57,1.14-2.38,2.33-5.01,3.56-7.35.37-.73.97-1.99,1.62-3.48.4-.92.86-1.98,1.26-3.01.38-.88.2-.59.67-1.54-.65-.07-1.24-.17-1.82-.27.47-1.68.77-3.59,1.63-5.21,1.17.19,2,.34,3.1.46,1.59.32,3.15.58,4.74.91,2,.34,5.02,1.08,7.15,1.49-.28,1.13-.76,2.96-1.6,5.12-.66-.18-1.33-.32-1.96-.43-2.37-.45-3.65-.75-6.28-1.21-.11.26-.25.57-.36.84-.88,2.03-1.05,2.53-1.93,4.55-.1.22-.21.48-.33.75.83.15,1.63.34,2.46.49,1.63.34,1.94.48,3.68.92-.31,1.07-1.08,3.56-1.94,5.18-.89-.23-1.88-.61-2.51-.73-2.04-.47-2.38-.67-4.14-.96-.43.86-.66,1.39-.92,2.01-.17.4-.37.84-.59,1.47,1.8.31,3.31.7,4.96,1,2,.34,1.67.25,3.49.63-.45,1.16-1.13,2.96-1.96,4.75-.72-.16-1.63-.34-2.04-.36Z"/>
      <path class="cls-6" d="M159.18,33.26c-4.51,3.09-6.79,5.06-11.36,8.23-3.67,2.51-7.2,5.3-10.8,7.86-1.55-1.22-2.84-3.21-3.44-4.1.82-.65,1.08-.77,1.78-1.26,2.31-1.59,4.72-3.06,7-4.61.78-2.92,1.29-5.86,2.14-8.79.4-1.31,1.46-5.27,1.76-6.52,1.25.07,3.14.47,5.24,1.08-.11.4-.24.83-.37,1.27-.75,2.29-1.51,5.35-2.31,8.2.55-.44,1.28-.97,2.26-1.69,1.39-.95,4.91-3.57,6.26-4.56.64.51,2.3,2.23,3.52,3.75-.46.32-1.17.81-1.7,1.15Z"/>
      <path class="cls-6" d="M163.45,66.31c-1.97,1.54-4.71,1.85-7.09.67-1.1-.54-2.17-1.53-3.02-2.45-.96-1.08-2.21-2.9-2.48-4.1-.29-1.23-.33-2.37-.1-3.4.01-.38.14-.84.34-1.43.33-.75,1.13-1.67,2-2.36.57-.44,1.23-.84,1.79-.98,1.12,1.2,2.5,3.35,2.99,4.13-1.06.59-1.56,1.04-1.76,1.8-.18.93.15,1.9.71,2.62.65.83,1.49,1.52,2.57,1.65,1.18.11.63-2.93.47-4.7-.29-2.39-.29-3.8-.35-6.13.03-1.91,1.6-3.87,3.23-5.15.79-.62,1.67-1.06,2.24-1.26,3.53-1.18,9.1-.84,12,2.87.97,1.25,1.6,2.9.8,4.61-.8,1.48-1.76,2.35-3.15,3.38-.53.42-3.65,2.74-4.44,3.05-.48-.54-.96-1.08-1.41-1.64-.77-.98-1.23-1.72-1.57-2.24.38-.3,3.25-2.24,3.55-2.47.76-.59,1.03-.87,1.47-1.39-.62-.79-3.42-1.72-4.7-1.26-.61.23-1.05.45-1.42.75-1.7,1.33-.99,3.33-.94,6.04.01,2.12.5,3.75.31,5.85-.08,1.46-1.13,2.84-2.04,3.55Z"/>
    </g>
  </g>
  <g id="Artboard_3:_Baker_Text" data-name="Artboard 3: Baker Text">
    <g>
      <path class="cls-7" d="M54.98,185.03c-2,.48-4.15.54-5.91-.1-.86-.36-1.84-.79-2.77-1.3-1.42-.78-4.05-2.82-4.91-4.43.37-.67,1.16-1.64,1.67-2.28,2.24-2.73,3.89-5.94,5.74-9.11.98-1.69,2-3.35,2.96-5.1.53-.96,1.01-1.94,1.5-2.92.37-.77.76-1.59,1.15-2.3-.49-.27-1.16-.58-1.71-.72.94-1.71,2.13-3.5,2.69-4.33.51.23,1.57.59,1.94.79,1.56.91,2.66,1.3,4.09,2.46,1.6,1.31,3.67,3.31,4.71,5.08,1.42,2.41,2.62,5.23,1.22,7.78-.32.58-.76,1.1-1.31,1.61-1.57,1.42-4.07,3.08-7.17,3.83l1.33,1.81c1.09,1.47,1.89,3.48,1.06,5.46-.99,2.28-4.08,3.3-6.29,3.76ZM56.49,178.81c-.19-.7-.83-1.27-1.31-1.75-.6-.54-1.26-1.07-1.97-1.51-.37-.2-.78-.32-1.14-.52-.36-.2-.77-.42-1.32-.67.12.07-2.6,3.78-2.85,4.24.19.43.62.88,1.11,1.15.69.38,1.56.53,2.15.69,1.2.22,2.82.35,4.12-.02.72-.26,1.42-.85,1.2-1.62ZM53.48,169.78c.76.15,1.01.28,1.76.15.53-.09,1.32-.2,1.85-.29,1.33-.41,1.26-.28,2.81-.9.79-.38,2.37-1.25,2.68-2,.35-.73-.04-1.76-.36-2.42-.67-1.29-2.44-2.86-3.65-3.74-.54.9-1.04,1.71-1.52,2.58-.44.9-.9,1.73-1.35,2.57-.37.67-.71,1.29-1.09,1.9-.47.66-.78,1.42-1.13,2.15Z"/>
      <path class="cls-7" d="M72.17,188.81l-5.43-.81c-1.01,1.77-2.3,3.95-2.58,4.36-1.09-.55-2.92-1.49-4.43-2.98.89-1.11,4.88-7.27,5.61-8.48,3.56-5.59,4.29-7.25,7.75-14.63.75.09,2.86.33,3.59.46.82.17,2.1.28,3.04.53-.17,1.59-.61,3.1-.79,4.69-.25,3.02-.64,6.04-1.02,9.01-.2,1.68-.29,3.3-.38,4.92-.04,1.19-.6,6.05-.74,7.85-1.25.25-5.34-.33-5.31-.27.19-1.34.44-3.01.69-4.67ZM69.52,183.21l3.3.62c.32-2.04.83-6.92,1.17-8.87-1.04,2.16-3.52,6.21-4.47,8.25Z"/>
      <path class="cls-7" d="M94.36,197.66c-.71.48-1.43,1.02-2.18,1.35-.87-.88-1.54-2.21-2.06-3.28-.9-1.74-1.75-3.53-2.35-5.38-.14-.4-.32-.81-.46-1.16-.21.21-.44.52-.7.73-.06.85-.16,1.66-.26,2.41-.11.85-.2,1.6-.31,2.45-.02.19-.14,1.13-.17,1.32-1.69.12-4.07.11-5.18.06.24-1.89.65-3.66.94-5.97.13-.99.31-1.73.37-2.59.11-1.23.36-2.45.51-3.67.23-1.84.5-3.63.74-5.51.11-.9.24-1.89.31-2.79.02-.52.19-1.84.33-2.98.11-.85.2-1.6.3-2.02,1.04-.16,3.18-.41,4.79-.3-.03.62-.21,1.32-.29,1.93-.1.8-.43,3.4-.52,4.15-.23,1.84-.45,3.58-.69,5.42.55-.65,1.08-1.2,1.77-2.17,1.19-1.67,2.12-3.52,3.1-5.31.57-.84,2.09-3.62,2.61-4.41,1.32.65,2.85,1.46,4.2,2.59-1.79,3.46-5.08,8.12-7.21,11.31-.29.44-.62.88-1,1.31.54,2.03,1.17,3.65,1.93,5.37.44.97.97,1.9,1.51,2.78.54.93,1.27,1.79,1.81,2.67-.3.54-1.34,1.36-1.84,1.68Z"/>
      <path class="cls-7" d="M112.73,195.93c-2.96,1.01-5.81,1.53-8.59,2.29-.64.17-1.41.45-2.33.69-.13-.76-.17-1.47-.2-2.23-.03-.57-.06-1.14-.04-1.71-.04-2.62-.13-5.47-.08-8.09,0-.81-.02-2.19-.1-3.8-.05-1-.11-2.14-.21-3.23-.05-.95-.08-.61-.08-1.66-.59.22-1.14.39-1.69.56-.32-1.7-.87-3.53-.82-5.34,1.09-.34,1.87-.57,2.87-.95,1.51-.41,2.97-.86,4.48-1.27,1.87-.57,4.8-1.24,6.81-1.82.24,1.13.61,2.97.82,5.24-.64.13-1.28.3-1.88.48-2.24.64-3.47.94-5.94,1.68.01.28.03.62.04.9.11,2.18.18,2.7.29,4.89.01.24.03.52.04.81.78-.23,1.55-.41,2.33-.64,1.55-.41,1.88-.43,3.57-.8.19,1.08.6,3.64.55,5.45-.87.19-1.88.29-2.48.46-1.97.48-2.34.45-3.98.96,0,.95.03,1.52.06,2.19.02.43.04.9.12,1.56,1.69-.51,3.15-.83,4.71-1.28,1.87-.57,1.55-.51,3.29-.97.11,1.23.29,3.13.35,5.08-.69.18-1.55.41-1.92.57Z"/>
      <path class="cls-7" d="M134.78,191.29c-.99,1.85-2.43,3.6-3.08,4.29-.44-.24-.89-.57-1.36-.95-.7-.57-1.43-1.23-1.99-1.98-.39-.45-1-1.23-1.77-2.27-.27-.33-2.19-3.05-2.19-3.05,0,0-.58.38-.85.64.31,1.1.7,2.77.99,3.82.32,1.15.62,2.05.94,3.2-1.43.78-3.21,1.68-4.87,1.93-.15-.45-.27-.96-.38-1.42-.21-.88-.35-1.68-.58-2.45-.29-1.05-.48-2.04-.72-3.05-.36-1.72-.74-3.34-1.04-5.03-.21-1.07-.84-4.2-1.1-5.5-.32-1.34-.84-3.56-1.17-5-.56.03-1.18.23-1.79.27-.15-.65-.36-1.53-.47-2.19-.23-.97-.3-2.08-.29-2.86.77-.18,1.6-.28,2.28-.39.97-.13,1.86-.19,2.74-.25,3.44-.32,7.02.55,9.81,2.72.7.57,1.39,1.04,1.98,1.73.46.53.81,1.03,1.07,1.7.57,1.43,1.12,3.16-.61,6.1-.54.96-1.31,1.72-2.07,2.54.87,1.46,2.21,3.34,3.28,4.65.54.7,1.18,1.19,1.8,1.78.47.38.97.7,1.43,1.03ZM121.66,174.31c-.3-.08-.7-.13-1.08-.14.12.9.29,1.84.47,2.82.27,1.16.85,3.81,1.2,5.53.73-.51,1.56-1.05,2.28-1.81,1.56-1.64,1.93-2.7,1.75-3.49-.15-.65-.7-1.15-1.39-1.67-1.17-.75-1.99-1-3.24-1.24Z"/>
      <path class="cls-7" d="M149.05,159.39c.82,5.34,1.58,8.22,2.44,13.64.65,4.34,1.62,8.68,2.36,12.99-1.72.81-4,1.07-5.03,1.19-.23-1.01-.22-1.29-.36-2.13-.42-2.74-.7-5.51-1.1-8.21-2.22-1.99-4.58-3.74-6.79-5.8-.97-.93-4-3.63-4.97-4.46.58-1.07,1.73-2.55,3.14-4.12.3.27.63.58.95.89,1.69,1.68,4.04,3.71,6.2,5.68-.15-.67-.31-1.56-.53-2.74-.25-1.65-1.07-5.9-1.36-7.53.71-.33,2.91-1.03,4.75-1.42.08.55.22,1.39.29,2Z"/>
    </g>
    <circle class="cls-16" cx="139.53" cy="179.73" r="3.5"/>
  </g>
</svg>