<?xml version="1.0" encoding="UTF-8"?>
<svg id="Layer_2" data-name="Layer 2" xmlns="http://www.w3.org/2000/svg" viewBox="0 0 575.38 585.41">
  <g id="ArtboardSix">
    <rect y=".05" width="575.38" height="585.37" rx="11.44" ry="11.44" fill="#76b4ff"/>
    <path d="M218.08,267.93H81.06V95.13c28,0,50.71-22.7,50.71-50.71h172.8v137.02c0,47.76-38.72,86.49-86.49,86.49Z" opacity=".51"/>
    <path d="M358.52,315.88h137.02v172.8c-28,0-50.71,22.7-50.71,50.71h-172.8v-137.02c0-47.76,38.72-86.49,86.49-86.49Z" opacity=".51"/>
    <g id="Triangles">
      <path d="M196.06,585.37h0L13.11,436.81h0c0,82.05,81.91,148.56,182.95,148.56Z" fill="#ffc176"/>
      <polygon points="196.06 585.37 379.02 585.37 196.06 436.81 196.06 585.37"/>
      <polygon points="196.06 436.81 13.11 436.81 196.06 585.37 196.06 436.81" fill="#6a3c00"/>
      <polygon points="379.02 436.81 196.06 436.81 379.02 585.37 379.02 436.81" fill="#6a3c00"/>
      <path d="M561.97,436.81h-182.95s53.59,43.51,53.59,43.51c47.74,38.76,129.37,11.31,129.37-43.51h0Z" fill="#ffc176"/>
      <path d="M379.02,585.37h0c67.51,0,101.32-66.28,53.59-105.04l-53.59-43.51v148.56Z"/>
      <polygon points="561.97 292.73 379.02 292.73 561.97 441.29 561.97 292.73" fill="#ffc176"/>
      <polygon points="379.02 292.73 196.06 292.73 379.02 441.29 379.02 292.73"/>
      <polygon points="379.02 441.29 561.97 441.29 379.02 292.73 379.02 441.29" fill="#6a3c00"/>
      <polygon points="196.06 441.29 379.02 441.29 196.06 292.73 196.06 441.29" fill="#ffc176"/>
      <polygon points="13.11 441.29 196.06 441.29 13.11 292.73 13.11 441.29" fill="#ffc176"/>
      <polygon points="196.06 292.73 13.11 292.73 196.06 441.29 196.06 292.73"/>
      <polygon points="13.11 292.63 196.06 292.63 13.11 144.08 13.11 292.63" fill="#ffc176"/>
      <polygon points="196.06 292.63 379.02 292.63 196.06 144.08 196.06 292.63"/>
      <polygon points="196.06 144.08 13.11 144.08 196.06 292.63 196.06 144.08" fill="#6a3c00"/>
      <polygon points="379.02 144.08 196.06 144.08 379.02 292.63 379.02 144.08" fill="#ffc176"/>
      <polygon points="561.97 144.08 379.02 144.08 561.97 292.63 561.97 144.08" fill="#ffc176"/>
      <polygon points="379.02 292.63 561.97 292.63 379.02 144.08 379.02 292.63"/>
      <path d="M379.02,0h0l182.95,148.56h0C561.97,66.51,480.06,0,379.02,0Z" fill="#ffc176"/>
      <polygon points="379.02 0 196.06 0 379.02 148.56 379.02 0"/>
      <polygon points="379.02 148.56 561.97 148.56 379.02 0 379.02 148.56" fill="#6a3c00"/>
      <polygon points="196.06 148.56 379.02 148.56 196.06 0 196.06 148.56" fill="#6a3c00"/>
      <path d="M13.11,148.56h182.95s-53.59-43.51-53.59-43.51C94.74,66.28,13.11,93.73,13.11,148.56h0Z" fill="#ffc176"/>
      <path d="M196.06,0h0c-67.51,0-101.32,66.28-53.59,105.04l53.59,43.51V0Z"/>
    </g>
    <path d="M521.84,376.17v12.6c0,3.84-2.39,7-5.31,7-13.61,4.32-28.75,7.72-45.3,9.33-88.43,8.62-158.19-39.46-185.33-60.67-13.21,10.03-33.15,23.62-59.33,36-18.77,8.87-52.77,24.57-98.67,28,0,0-17.72,1.32-79.79-12.67-.76-.17-2.58-.52-3.74-2.06-.96-1.27-1.56-3.02-1.56-4.94v-12.6c0-3.24,11.5-82.62,13.76-83.42.44-.16.9-.23,1.37-.23l457.06-22.34c.48,0,.94.07,1.37.23,2.27.8,5.48,102.52,5.48,105.76Z" opacity=".51"/>
    <path id="MustacheBorder" d="M542.5,418.81l-.29-67.72c-2.94-85.33-58.55-152-139.76-178.35-35.03-11.37-73.83-16.45-114.15-16.55-1.89,0-3.78,0-5.66.03-36.87.55-72.37,5.21-104.79,15.04-84.52,25.62-142.51,95.08-143.94,183.39l-1.03,64.1,111.18-24.01c52.16-11.26,101.03-34.4,142.8-67.62l.67-.53.61.48c41.69,33.13,90.44,56.23,142.48,67.5l111.89,24.24Z" fill="#6a3c00" stroke="#000" stroke-miterlimit="10" stroke-width="2"/>
    <path d="M497.46,320.04c0-219.61-27.08,69.57-27.08,69.57,0,0-182.84-190.46-182.84-69.57"/>
    <path d="M77.62,320.04c0-218.02,27.08,69.57,27.08,69.57,0,0,182.84-190.46,182.84-69.57"/>
    <g>
      <path d="M132.94,221.59c0,4.27,2.66,9.96,7.59,9.96.57,0,1.14-.09,1.71-.28l11.29-8.64-.38-.57c-.76.09-1.52.19-2.28.19-5.03,0-6.26-4.27-6.26-8.54,0-1.49.2-2.95.56-4.36h-7.79c-2.64,3.81-4.45,8.08-4.45,12.24Z" fill="#ffc176"/>
      <path d="M189.22,188.42h1.61c4.55,0,8.92.85,13.47.85h.66c3.13-3.8,5.98-9.49,7.21-14.23-18.6,1.9-46.78,7.78-62.16,17.94-3.5,2.29-7.2,5.77-9.97,9.77h7.79c.8-3.1,2.49-5.89,5.22-7.78,5.22-3.61,15.66-6.17,22.02-6.17-2.05,4.62-4.01,9.28-5.94,13.95h12.42c2.41-4.85,4.94-9.64,7.66-14.33Z" fill="#ffc176"/>
      <path d="M178.9,209.34h-12.42c-4.39,10.65-8.52,21.42-12.66,32.19h10.62c4.6-10.83,9.23-21.66,14.46-32.19Z" fill="#ffc176"/>
      <path d="M152.48,245.93c-2.29,5.95-4.58,11.9-6.93,17.82,3.89-.66,9.11-3.32,12.34-5.6,1.75-4.06,3.48-8.14,5.21-12.22h-10.62Z" fill="#ffc176"/>
      <path d="M206.49,185.1c-3.7.28-7.5,1.33-11.01,2.56-2.22,5.04-4.46,10.07-6.72,15.09h9.09c2.84-5.91,5.72-11.8,8.64-17.65Z" fill="#ffc176"/>
      <path d="M165.29,254.74h.57c2.85,0,5.79-.66,8.35-1.9,1.11-2.05,2.51-4.47,4.12-6.91h-8.49c-1.45,2.99-2.95,5.95-4.55,8.81Z" fill="#ffc176"/>
      <path d="M186.5,245.93c-.74,1.85-1.28,3.69-1.28,5.39,0,2.28,1.14,3.89,3.51,3.89,3.76,0,8.75-4.29,13.36-9.28h-15.59Z" fill="#ffc176"/>
      <path d="M214.45,228.04l-1.52-2.37c-1.42,1.9-11.39,15.09-13.76,15.09-.47,0-.57-.57-.57-.95,0-6.55,9.01-19.36,9.01-23.63,0-1.14-.57-1.61-1.71-1.61-5.22,0-15.37,9.3-19.07,12.81l-.19-.1c2.82-5.97,5.66-11.96,8.53-17.93h-9.09c-3.15,7-6.34,13.97-9.6,20.88-1.74,3.75-3.5,7.55-5.32,11.31h8.49c2.93-4.46,6.53-8.98,10.21-11.31.47-.28,1.14-.85,1.8-.85.47,0,.67.47.67.85,0,2.78-2.8,7.07-4.51,11.31h15.59c4.59-4.97,8.8-10.65,11.03-13.49Z" fill="#ffc176"/>
      <path d="M244.15,227.94l-.76-3.32c-3.25,4.43-9.17,12.73-15.34,16.91h4.58c4.99-4.72,9.37-10.1,11.52-13.59Z" fill="#ffc176"/>
      <path d="M226.72,245.93c-2.3,1.56-4.63,2.55-6.86,2.55-2.02,0-3.55-.97-4.27-2.55h-10.34s0,.05,0,.08c0,5.69,3.32,9.68,9.21,9.68,4.87,0,11.25-4.46,16.86-9.76h-4.58Z" fill="#ffc176"/>
      <path d="M216.44,239.33c0-1.14.29-2.28.66-3.32,9.02.66,15.85-3.7,19.93-11.58,1.04-1.9,1.8-4.08,1.8-6.26,0-4.37-3.7-6.55-7.69-6.55-10.15,0-21.83,13.85-23.82,23.15-.47,2.25-.75,4.5-.76,6.75h10.34c-.3-.64-.47-1.37-.47-2.2ZM229.45,217.98c1.23,0,1.71,1.04,1.71,2.18,0,6.07-6.07,12.62-12.34,12.62h-.47c1.14-3.42,6.93-14.8,11.1-14.8Z" fill="#ffc176"/>
      <path d="M262.18,221.49c0,1.14.19,2.28.66,3.32l11.01-11.29c-.57-.95-1.04-1.99-1.04-3.13,0-.34.06-.69.14-1.04h-6.72c-2.38,3.75-4.05,8.11-4.05,12.15Z" fill="#ffc176"/>
      <path d="M304.8,189.56l-14.52,2.75c-1.49,3.49-3.01,6.96-4.53,10.44h12.53l6.53-13.19Z" fill="#ffc176"/>
      <path d="M283.26,193.45c5.03-4.56,16.99-9.11,23.91-9.11,3.89,0,7.4,1.42,7.4,5.88s-3.74,9.11-8.27,12.53h7.38c6.61-4.7,14.09-11.29,14.09-16.42s-7.02-7.31-12.34-7.31c-13.1,0-31.6,8.54-41.66,17.84-1.74,1.6-3.44,3.63-4.87,5.88h6.72c.83-3.45,5.4-7.23,7.64-9.3Z" fill="#ffc176"/>
      <path d="M287.62,225.38c3.89-.95,7.78-1.61,11.77-1.61,3.04,0,11.58.76,11.58,4.93s-6.96,9.29-14.39,12.83h9.73c5.76-6.17,11.68-14.94,11.68-20.89,0-4.93-4.84-6.93-9.11-6.93-1.8,0-3.61.19-5.41.47,1.86-1.05,4.62-2.76,7.55-4.84h-7.38c-3.58,2.7-7.66,4.72-10.8,5.6l2.77-5.6h-12.53c-4.72,10.78-9.6,21.5-14.52,32.19h11.02l8.04-16.15Z" fill="#ffc176"/>
      <path d="M295.24,245.93c-6.01,2.87-12.32,4.82-15.5,4.82-1.23,0-2.47-.1-3.51-.76l2.02-4.06h-11.02c-2,4.33-4,8.66-6,12.98,1.23,2.75,5.22,3.13,7.78,3.13,9.39,0,22.11-5.03,29.7-10.44,1.82-1.3,4.03-3.29,6.25-5.68h-9.73Z" fill="#ffc176"/>
      <path d="M324.15,240.75c0-5.79,8.16-22.02,14.71-22.02.76,0,1.42.19,2.09.47-3.13,5.22-6.64,14.52-7.4,20.5-.53.56-1.2,1.21-1.94,1.82h16.89c4.39-5.24,8.31-11.33,9.91-13.68l-1.9-1.71c-1.9,2.47-9.68,14.71-12.24,14.71-.95,0-1.14-1.23-1.14-1.9,0-5.22,7.02-20.21,9.96-24.96l-9.49.95-1.14,1.61c-1.52-.76-3.23-1.14-4.93-1.14-10.73,0-21.93,15.23-23.82,26.11h10.51c-.04-.26-.07-.52-.07-.78Z" fill="#ffc176"/>
      <path d="M330.27,245.93c-1.51,1.25-3.33,2.36-4.99,2.36-1.49,0-2.2-1.11-2.4-2.36h-10.51c-.18,1.05-.28,2.07-.28,3.02,0,4.56,2.09,6.74,6.64,6.74,5.22,0,9.87-3.61,13.29-7.21.09,2.09.66,6.17,3.51,6.17,3.37,0,7.69-4.01,11.63-8.71h-16.89Z" fill="#ffc176"/>
      <path d="M356.35,245.93c-1.37,2.91-2.32,5.44-2.32,6.72,0,1.9,1.23,2.66,3.04,2.66,4.05,0,9.15-4.33,13.81-9.38h-14.53Z" fill="#ffc176"/>
      <path d="M383.27,227.94l-1.61-2.09c-1.8,1.99-11.39,15.09-14.04,15.09-.57,0-.47-.76-.47-1.14,0-6.74,4.55-13.38,9.49-17.56.47-1.99.66-4.18.66-6.17,0-.76,0-1.42-.09-2.18-2.94,1.52-8.16,2.85-11.48,2.85h-.29c.67-1.99,1.14-2.85,1.14-5.22,0-1.23-.47-2.18-1.8-2.18-1.9,0-4.08,1.71-5.31,3.04-2.28,2.37-2.94,6.07-2.94,9.2,0,2.94-.38,4.08-1.61,6.64l1.9.76c3.23-1.61,6.64-2.09,10.15-2.94-1.91,1.97-6.47,9.54-9.26,15.48h14.53c4.61-5,8.79-10.7,11.05-13.59Z" fill="#ffc176"/>
      <path d="M384.97,236.86c0-3.51.95-7.21,2.09-10.53,3.69-3.48,9.42-10.09,13.92-16.99h-3.25c-3.38,5.31-7.75,10.89-10.09,13.29l-.19-.1c.63-1.74,3.52-7.73,6.63-13.19h-8.78c-6.34,11.59-10.95,25.17-10.95,31.31,0,.29,0,.58.02.87h11.81c-.99-1.15-1.2-3.07-1.2-4.67Z" fill="#ffc176"/>
      <path d="M401.77,231.17c.95.66,2.09.95,3.23.95,3.04,0,5.69-1.99,7.5-4.27l-1.52-2.28c-1.04,1.42-2.66,3.13-4.55,3.13-1.23,0-2.28-.85-2.85-1.9.66-1.33,1.04-2.85,1.04-4.37,0-2.18-1.14-5.6-3.8-5.6s-4.37,4.65-4.37,6.93c0,1.8.66,3.51,1.99,4.74-.08,4-2.56,10.52-6.54,13.02h3.95c2.59-3.52,4.63-7.37,5.91-10.36Z" fill="#ffc176"/>
      <path d="M390.57,245.93c-1.02.64-2.13,1.03-3.33,1.03-1.1,0-1.87-.4-2.41-1.03h-11.81c.21,4.6,2.12,9.47,7.48,9.47s10.28-4.38,14.02-9.47h-3.95Z" fill="#ffc176"/>
      <path d="M404.53,192.69c.28,0,.38.19.47.47-.35,2.27-2.24,5.86-4.62,9.58h3.25c3.83-5.88,6.77-11.97,6.77-16.51,0-1.9-.85-3.04-2.85-3.04-6.53,0-13.8,8.94-19.61,19.55h8.78c3-5.27,6.21-10.06,7.8-10.06Z" fill="#ffc176"/>
      <path d="M424.67,245.93c-2.3,1.56-4.63,2.55-6.86,2.55-2.02,0-3.55-.97-4.27-2.55h-10.34s0,.05,0,.08c0,5.69,3.32,9.68,9.21,9.68,4.87,0,11.25-4.46,16.86-9.76h-4.58Z" fill="#ffc176"/>
      <path d="M414.39,239.33c0-1.14.29-2.28.66-3.32,9.02.66,15.85-3.7,19.93-11.58,1.04-1.9,1.8-4.08,1.8-6.26,0-4.37-3.7-6.55-7.69-6.55-10.15,0-21.83,13.85-23.82,23.15-.47,2.25-.75,4.5-.76,6.75h10.34c-.3-.64-.47-1.37-.47-2.2ZM427.39,217.98c1.23,0,1.71,1.04,1.71,2.18,0,6.07-6.07,12.62-12.34,12.62h-.47c1.14-3.42,6.93-14.8,11.1-14.8Z" fill="#ffc176"/>
      <path d="M442.1,227.94l-.76-3.32c-3.25,4.43-9.17,12.73-15.34,16.91h4.58c4.99-4.72,9.37-10.1,11.52-13.59Z" fill="#ffc176"/>
      <path d="M467.15,227.94l-1.61-2.09c-1.8,1.99-11.39,15.09-14.04,15.09-.57,0-.47-.76-.47-1.14,0-6.74,4.55-13.38,9.49-17.56.47-1.99.66-4.18.66-6.17,0-.76,0-1.42-.09-2.18-2.94,1.52-8.16,2.85-11.48,2.85h-.29c.67-1.99,1.14-2.85,1.14-5.22,0-1.23-.47-2.18-1.8-2.18-1.9,0-4.08,1.71-5.31,3.04-2.28,2.37-2.94,6.07-2.94,9.2,0,2.94-.38,4.08-1.61,6.64l1.9.76c3.23-1.61,6.64-2.09,10.15-2.94-1.91,1.97-6.47,9.54-9.26,15.48h14.53c4.61-5,8.79-10.7,11.05-13.59Z" fill="#ffc176"/>
      <path d="M440.24,245.93c-1.37,2.91-2.32,5.44-2.32,6.72,0,1.9,1.23,2.66,3.04,2.66,4.05,0,9.15-4.33,13.81-9.38h-14.53Z" fill="#ffc176"/>
    </g>
  </g>
</svg>