<?xml version="1.0" encoding="UTF-8"?>
<svg id="Layer_2" data-name="Layer 2" xmlns="http://www.w3.org/2000/svg" viewBox="0 0 383.3 212.79">
  <defs>
    <style>
      .cls-1 {
        stroke-width: 0px;
      }

      .cls-1, .cls-2 {
        fill: #000;
      }

      .cls-2 {
        stroke: #000;
        stroke-miterlimit: 10;
        stroke-width: 3px;
      }
    </style>
  </defs>
  <g id="Layer_1-2" data-name="Layer 1">
    <path class="cls-1" d="M121.85,124.78l-1.45,1.36.82-126.14h46.01c22.78,0,33.94,12.67,33.94,28.81,0,8.45-3.92,16.44-11.47,20.82,13.12,4.37,17.52,15.24,17.52,28.21,0,14.26-9.82,28.15-45.73,28.15-14.69,0-26.73,11.81-39.65,18.79ZM143.4,19.31v25.49h20.82c10.86,0,15.39-6.34,15.39-12.97s-3.47-12.52-15.24-12.52h-20.97ZM143.4,60.64v31.25l4.53-1.88c16.28-5.85,39.52,1.88,39.52-13.07,0-8.6-4.53-16.29-19.76-16.29h-24.29ZM253.76,106.8c-25.03,0-43.48-18.28-43.48-42.96,0-23.28,18.77-41.87,43.16-41.87,27.76,0,42.52,22.34,42.52,45.3h-65.63c1.6,12.97,11.16,19.79,23.84,19.79,8.83,0,16.92-3.39,20.29-10.73h20.38c-4.33,18.75-21.34,30.46-41.08,30.46ZM231.62,54.78h42.36c-2.57-9.22-9.79-14.84-20.38-14.84s-18.93,5.62-21.98,14.84ZM59.89,169.63C25.04,169.63,0,144.14,0,110.8s24.74-58.68,59.13-58.68c27,0,49.93,15.99,57.32,41.79h-24.89c-4.83-11.92-16.9-20.67-31.98-20.67-21.12,0-35.9,15.84-35.9,37.71s14.93,37.86,36.66,37.86c17.35,0,30.47-10.11,35.3-24.74h-31.83v-17.05h54.16c.15.6.3,4.07.3,4.98,0,32.58-25.8,57.63-58.38,57.63ZM253.27,169.63c-25.04,0-42.69-17.8-42.69-41.18s17.65-40.73,42.69-40.73,42.69,17.8,42.69,40.73-17.65,41.18-42.69,41.18ZM253.27,150.47c12.97,0,22.33-9.5,22.33-22.02s-9.35-21.57-22.33-21.57-22.33,9.5-22.33,21.57,9.35,22.02,22.33,22.02ZM362.33,154.39c-5.88,9.66-15.24,15.24-25.95,15.24-20.06,0-35.9-17.5-35.9-41.18s15.84-40.73,35.9-40.73c10.71,0,20.06,5.58,25.95,15.09v-48.58h20.97v113.14h-20.97v-12.97ZM341.52,150.17c9.35,0,17.2-5.88,20.82-12.82v-17.5c-3.77-6.94-11.46-12.82-20.82-12.82-11.01,0-19.91,8.9-19.91,21.42s8.9,21.72,19.91,21.72ZM163.04,169.55c-25.04,0-42.69-17.8-42.69-41.18s17.65-40.73,42.69-40.73,42.69,17.8,42.69,40.73-17.65,41.18-42.69,41.18ZM163.04,150.4c12.97,0,22.33-9.5,22.33-22.02s-9.35-21.57-22.33-21.57-22.33,9.5-22.33,21.57,9.35,22.02,22.33,22.02Z"/>
    <ellipse class="cls-2" cx="163.04" cy="128.6" rx="9.55" ry="6.61"/>
    <ellipse class="cls-2" cx="253.27" cy="128.67" rx="9.55" ry="6.61"/>
    <path class="cls-1" d="M171.46,178.96c.03,8.06,2.66,15.5,7.78,21.7,4.23,5.12,10.43,8.64,16.73,10.5,12.86,3.8,28.27.97,37.84-8.76,6.15-6.25,9.13-14.75,9.17-23.44.02-3.92-3.46-7.68-7.5-7.5s-7.48,3.3-7.5,7.5c0,1.36-.09,2.72-.26,4.07l.27-1.99c-.32,2.31-.9,4.56-1.8,6.71l.76-1.79c-.64,1.49-1.41,2.91-2.32,4.24-.1.14-.2.29-.3.43-.69.99.57-.76.67-.85-.29.27-.53.66-.8.96-.5.57-1.02,1.12-1.57,1.64s-1.14.99-1.71,1.48c2.4-2.05.25-.22-.49.26-1.33.86-2.74,1.59-4.2,2.21l1.79-.76c-2.58,1.08-5.28,1.8-8.05,2.18l1.99-.27c-3.01.4-6.05.39-9.06,0l1.99.27c-2.85-.39-5.63-1.13-8.28-2.25l1.79.76c-1.46-.63-2.87-1.36-4.21-2.22-.32-.2-.63-.41-.94-.63-.14-.1-.28-.2-.42-.3-.98-.69.77.59.86.68-.55-.55-1.23-1.01-1.8-1.54s-1.08-1.07-1.58-1.64c-.25-.29-.49-.58-.73-.88-.68-.82,1.25,1.69.66.86-.12-.17-.25-.34-.37-.51-.94-1.34-1.73-2.78-2.38-4.29l.76,1.79c-.89-2.12-1.48-4.34-1.8-6.61l.27,1.99c-.17-1.33-.26-2.66-.26-4-.02-3.92-3.44-7.68-7.5-7.5s-7.52,3.3-7.5,7.5h0Z"/>
  </g>
</svg>