<?xml version="1.0" encoding="UTF-8"?>
<svg id="Layer_2" data-name="Layer 2" xmlns="http://www.w3.org/2000/svg" xmlns:xlink="http://www.w3.org/1999/xlink" viewBox="0 0 384 628.63">
  <defs>
    <filter id="drop-shadow-1" x="0" y="11.11" width="384" height="188.18" filterUnits="userSpaceOnUse">
      <feOffset dx="0" dy="18"/>
      <feGaussianBlur result="blur" stdDeviation="5"/>
      <feFlood flood-color="#000" flood-opacity=".14"/>
      <feComposite in2="blur" operator="in"/>
      <feComposite in="SourceGraphic"/>
    </filter>
    <filter id="drop-shadow-2" x="24" y="0" width="334" height="149.3" filterUnits="userSpaceOnUse">
      <feOffset dx="0" dy="18"/>
      <feGaussianBlur result="blur-2" stdDeviation="5"/>
      <feFlood flood-color="#000" flood-opacity=".14"/>
      <feComposite in2="blur-2" operator="in"/>
      <feComposite in="SourceGraphic"/>
    </filter>
    <filter id="drop-shadow-3" x="42" y="2.85" width="299" height="133.45" filterUnits="userSpaceOnUse">
      <feOffset dx="0" dy="18"/>
      <feGaussianBlur result="blur-3" stdDeviation="5"/>
      <feFlood flood-color="#000" flood-opacity=".14"/>
      <feComposite in2="blur-3" operator="in"/>
      <feComposite in="SourceGraphic"/>
    </filter>
  </defs>
  <g id="Layer_1-2" data-name="Layer 1">
    <g>
      <path d="M185.22,622.63c-32.76-.13-65.41-7.21-97.03-21.04-.18-.33-.5-1.12-.5-2.35v-.27L43.6,109.49c66.86,19.97,117.41,30.51,146.53,30.51.69,0,1.36,0,2.03-.02,35.58-.61,104.02-20.65,137.19-30.69-1.44,161.16-44.32,485.85-44.76,489.17l-.05.39v.4c0,1.22-.32,2.02-.5,2.35-31.92,13.96-64.86,21.04-97.93,21.04h-.9Z" fill="#a09797"/>
      <path d="M323.25,117.39c-2.7,161.1-43.06,468.57-44.56,479.98-30.23,12.79-61.36,19.27-92.58,19.27h-.87c-30.91-.12-61.74-6.6-91.68-19.26L50.37,117.75c63.93,18.75,110.9,28.24,139.77,28.24.72,0,1.43,0,2.13-.02,33.72-.57,95.53-18,130.99-28.59M335.4,101.18c-27.42,8.35-105.51,32.15-143.33,32.8-.63.01-1.27.02-1.93.02-43.47,0-123.73-23.81-153.31-32.81l44.85,498.06c0,3.57,1.51,6.71,3.68,7.66,24.88,10.93,59.02,21.57,99.83,21.72.31,0,.61,0,.92,0,41.27,0,75.74-10.74,100.75-21.73,2.18-.96,3.68-4.09,3.68-7.66,0,0,44.85-337.74,44.85-498.06h0Z"/>
    </g>
    <path d="M366.87,98.83c13.04,34.83-78.69,67.34-175.76,67.34S15.35,136.03,15.35,98.83,80.03-29.26,191.11,31.49c85.16,46.58,122.92-73.75,175.76,67.34Z" filter="url(#drop-shadow-1)" stroke="#000" stroke-miterlimit="10"/>
    <ellipse cx="191.11" cy="57.98" rx="151.33" ry="57.98" fill="#666" filter="url(#drop-shadow-2)" stroke="#000" stroke-miterlimit="10"/>
    <rect x="156.92" y="84.96" width="60.15" height="19" rx="9.5" ry="9.5"/>
  </g>
  <g id="Layer_2-2" data-name="Layer 2">
    <path d="M49.45,251.3c29.17,14.18,77.58,32.6,138.91,32.75,62.09.15,111.06-18.5,140.37-32.75-4.79,61.04-9.58,122.08-14.37,183.12-22.36,13.68-66.57,36.17-125,36.21-58.61.04-102.96-22.52-125.33-36.21-4.86-61.04-9.72-122.08-14.58-183.12Z" fill="#e0a565"/>
    <g>
      <path d="M145.64,354.12l85.5.74c22.56,30.88,5.76,74.84-31.31,83.26-48.35,10.98-84.63-44.77-54.19-84ZM151.41,363.73c-22.3,35.23,13.88,77.88,52.91,62.53,23.93-9.41,35-40.42,20.52-62.22l-73.43-.31Z"/>
      <path d="M167.6,307.8c-4.21-1.17-4.93-9.45.99-10.55,16.81,1.04,35.37-1.47,51.95-.06,3.45.29,5.93.37,6.17,4.46.44,7.29-14.56,16.2-18.24,22.51h13.94c3.04,0,5.08,4.86,4.14,7.97-.3.98-12.33,14.01-13.73,15.13-4.15,3.32-9.97,1.46-14.92,1.9l11.54-14.42h-15.87c-1.05,0-2.63-1.6-2.96-2.81-2.37-8.57,13.94-17.21,17.87-24.12h-40.87Z"/>
      <path d="M255.59,378.49c-.25-1.16-2.36-3.47-3.49-4.2-5.24-3.37-10.5.63-10.95-8.3-.12-2.35,2.51-1.6,4.37-1.47,20.6,1.37,19.31,18.61,18.59,35l-1.44,1.44-7.08.13c-.95-6.52,1.28-16.58,0-22.6Z"/>
      <path d="M151.41,363.73l73.43.31c14.48,21.8,3.41,52.81-20.52,62.22-39.04,15.35-75.21-27.3-52.91-62.53ZM191.16,368.39l-13.99.9c-2.73,5.25-17.97,16.51-17.74,21.6.05,1.21.77,2.47,1.43,3.48,1.91,1.73,4.75,1.22,6.81.03,3.09-1.79,19.22-19.41,22.07-23.12.74-.96,1.87-1.22,1.43-2.89Z" fill="#fff"/>
      <path d="M191.16,368.39c.43,1.67-.69,1.92-1.43,2.89-2.85,3.71-18.98,21.33-22.07,23.12-2.06,1.19-4.9,1.71-6.81-.03-.66-1.01-1.37-2.27-1.43-3.48-.23-5.09,15.01-16.34,17.74-21.6l13.99-.9Z"/>
    </g>
  </g>
  <g id="Layer_4" data-name="Layer 4">
    <path d="M325.94,56.54c0,27.6-28.66,41.63-95.64,44.64-4.98.22,6.83-25.07-41.98-25.07-55.31,0-40.02,26.63-44.97,26.63-41.78,0-85.82-18.58-85.82-46.2C57.53,26.89,117.62,2.85,191.73,2.85s134.2,24.04,134.2,53.69Z" filter="url(#drop-shadow-3)"/>
  </g>
</svg>