<?xml version="1.0" encoding="UTF-8"?>
<svg id="Layer_2" data-name="Layer 2" xmlns="http://www.w3.org/2000/svg" xmlns:xlink="http://www.w3.org/1999/xlink" viewBox="0 0 70.26 51.47">
  <defs>
    <style>
      .cls-1 {
        fill: url(#linear-gradient);
      }

      .cls-1, .cls-2 {
        stroke-width: 0px;
      }

      .cls-2 {
        fill: #231f20;
      }

      .cls-3 {
        fill: #fff;
        stroke: #231f20;
        stroke-width: .5px;
      }

      .cls-3, .cls-4 {
        stroke-miterlimit: 10;
      }

      .cls-4 {
        fill: #1078b3;
        stroke: #000;
      }
    </style>
    <linearGradient id="linear-gradient" x1="4.3" y1="52.96" x2="80.01" y2="-.34" gradientUnits="userSpaceOnUse">
      <stop offset="0" stop-color="#d4dded"/>
      <stop offset=".07" stop-color="#cfd8e8"/>
      <stop offset=".15" stop-color="#c3cbd9"/>
      <stop offset=".24" stop-color="#b0b6c2"/>
      <stop offset=".33" stop-color="#9498a1"/>
      <stop offset=".35" stop-color="#90949c"/>
      <stop offset=".46" stop-color="#8c8f97"/>
      <stop offset=".58" stop-color="#81848b"/>
      <stop offset=".7" stop-color="#6e7076"/>
      <stop offset=".82" stop-color="#545458"/>
      <stop offset=".94" stop-color="#333133"/>
      <stop offset="1" stop-color="#231f20"/>
    </linearGradient>
  </defs>
  <g id="Artboard_6" data-name="Artboard 6">
    <g id="Badge4">
      <path class="cls-2" d="M67.67,16.15H3.33c-1.16,0-2.09-.94-2.09-2.09L.72,2.04C.72.88,2.88.41,3.33.32,13.5.12,23.84,0,34.34,0c11.3,0,22.41.1,33.33.32.14,0,.88.01,1.48.61.38.38.61.9.61,1.48v11.65c0,1.16-.94,2.09-2.09,2.09Z"/>
      <path class="cls-4" d="M69.76,1.99v34.55c0,.38-.31.74-.81.94l-32.86,13.32c-.58.24-1.33.24-1.91,0L1.31,37.48c-.51-.21-.81-.56-.81-.94V1.99c0-.62.79-1.12,1.77-1.12h65.73c.98,0,1.77.5,1.77,1.12Z"/>
      <path class="cls-3" d="M6.77,19.1h4.52c.18,0,.33-.08.38-.24,0,0,2.29-8.44,2.54-9.4.05-.2.23-.3.48-.3h1.47c.25,0,.38.1.33.3l-3.91,14.5c-.05.2-.23.28-.48.28h-1.47c-.25,0-.38-.08-.33-.28.03-.16.79-2.96.79-2.96.05-.18-.05-.24-.23-.24h-4.52c-.18,0-.33.06-.38.24,0,0-.76,2.8-.79,2.96-.05.2-.23.28-.48.28h-1.5c-.23,0-.36-.08-.3-.28l.84-3.14c.05-.2-.36-.94-.25-1.34.1-.3.69-.24.76-.52l2.57-9.5c.05-.2.23-.3.46-.3h1.5c.25,0,.38.1.33.3-.25.96-2.54,9.4-2.54,9.4-.05.16.05.24.23.24Z"/>
      <path class="cls-3" d="M12.45,12.57h4.52c.18,0,.33-.08.38-.24,0,0,2.29-8.44,2.54-9.4.05-.2.23-.3.48-.3h1.47c.25,0,.38.1.33.3l-3.91,14.5c-.05.2-.23.28-.48.28h-1.47c-.25,0-.38-.08-.33-.28.03-.16.79-2.96.79-2.96.05-.18-.05-.24-.23-.24h-4.52c-.18,0-.33.06-.38.24,0,0-.76,2.8-.79,2.96-.05.2-.23.28-.48.28h-1.5c-.23,0-.36-.08-.3-.28l.84-3.14c.05-.2-.36-.94-.25-1.34.1-.3.69-.24.76-.52l2.57-9.5c.05-.2.23-.3.46-.3h1.5c.25,0,.38.1.33.3-.25.96-2.54,9.4-2.54,9.4-.05.16.05.24.23.24Z"/>
      <path class="cls-2" d="M18.18,23.21s-.02-.08-.07-.08h-1.57c-.05,0-.09.02-.12.08l-.56.93c-.04.06-.07.1-.15.1h-.46c-.08,0-.11-.03-.11-.06,0-.04.04-.1.04-.1l2.81-4.55s.07-.09.16-.09h.36c.08,0,.09.04.1.09l.35,4.61c-.02.06-.07.1-.15.1h-.46c-.08,0-.09-.04-.1-.1l-.06-.93ZM18.02,20.68s-.02-.04-.04-.04c-.03,0-.04.01-.06.06l-1.08,1.83s0,.01,0,.04c0,.03.04.04.07.04h1.12c.05,0,.11-.02.12-.08l-.12-1.85ZM20.5,24.15c-.02.06-.07.09-.15.09h-.5c-.08,0-.12-.03-.1-.09l1.25-4.62c.02-.06.07-.09.15-.09h.35c.08,0,.16.03.19.09.03.06.98,3.13.98,3.13,0,0,0,.05.04.05s.05-.04.05-.06l.84-3.12c.02-.06.07-.09.15-.09h.5c.08,0,.12.03.1.09l-1.25,4.62c-.02.06-.07.09-.15.09h-.35c-.08,0-.16-.03-.19-.09-.03-.06-.99-3.11-.99-3.11,0,0,0-.05-.04-.05s-.04.04-.05.06l-.84,3.1ZM25.17,24.24h-.89c-.08,0-.12-.03-.11-.09l1.25-4.62c.02-.06.07-.09.15-.09h.79c1.17,0,1.82.53,1.82,1.72,0,1.45-1.1,3.08-3.02,3.08ZM27.4,21.15c0-.78-.41-1.14-1.15-1.14-.11,0-.19.03-.21.08-.08.31-.95,3.52-.95,3.52,0,.05.04.08.39.08,1,0,1.91-1.3,1.91-2.54ZM29.82,24.15c-.02.06-.07.09-.15.09h-.48c-.07,0-.11-.03-.09-.09l.56-2.07s0-.08-.02-.11l-.73-2.39c-.03-.07,0-.14.11-.14h.57c.08,0,.08.03.11.08l.47,1.83s.02.03.04.03c.03,0,.06-.03.06-.03l1.45-1.83c.06-.06.08-.08.16-.08h.57c.12,0,.08.08.02.14l-2.01,2.39s-.06.06-.07.11l-.56,2.07ZM36.04,19.87c.08,0,.1.04.11.08.02.06.29,2.72.29,2.72,0,.02,0,.1.04.1.04,0,.05-.04.08-.09l1.53-3.15c.02-.06.07-.09.15-.09h.44c.08,0,.12.03.1.09l-2.25,4.55c-.04.06-.1.15-.23.15h-.3c-.08,0-.1-.04-.12-.1-.02-.06-.28-3.05-.28-3.05,0,0,0-.05-.04-.05-.04,0-.07.05-.07.05,0,0-1.87,2.99-1.93,3.05-.05.06-.09.1-.17.1h-.3c-.13,0-.14-.09-.14-.15l.21-4.55c0-.06.04-.09.12-.09h.48c.09,0,.1.03.1.09l-.16,3.12c0,.07,0,.11.03.11s.05-.04.07-.06c0,0,1.74-2.69,1.8-2.75.04-.04.07-.08.14-.08h.31ZM38.61,22.86c0-1.69,1.05-3.47,2.47-3.47.97,0,1.32.68,1.32,1.49,0,1.69-1.05,3.47-2.36,3.47-1.01,0-1.43-.68-1.43-1.49ZM41.67,20.81c0-.52-.21-.85-.69-.85-.92,0-1.61,1.91-1.61,2.98,0,.49.19.88.7.88.97,0,1.59-1.93,1.59-3ZM45.03,22.55l.63,1.42c.04.11.07.27-.08.27h-.57c-.13,0-.17-.05-.19-.09l-.46-1.18c-.03-.08-.07-.1-.12-.1-.07,0-.37.16-.51.25-.12.06-.14.11-.15.13l-.25.9c-.02.06-.06.09-.14.09h-.53c-.08,0-.12-.03-.1-.09l1.25-4.62c.02-.06.07-.09.15-.09h1.11c.97,0,1.48.36,1.48.97,0,.81-.71,1.47-1.46,1.98-.06.04-.07.06-.08.08,0,.01,0,.04.02.07ZM44.03,22.38c.74-.41,1.73-1.13,1.73-1.88,0-.31-.27-.5-.75-.5h-.45c-.06,0-.11.03-.12.08-.08.31-.61,2.31-.61,2.31,0,.03,0,.06.04.06.03,0,.1-.03.17-.07ZM48.81,22.59l.9,1.37c.05.09.1.14.08.2-.02.04-.07.08-.15.08h-.48c-.13,0-.16-.05-.19-.09l-.73-1.16c-.04-.07-.07-.1-.12-.1-.07,0-.25.08-.39.16-.12.06-.14.11-.15.13l-.26.96c-.02.06-.07.09-.15.09h-.52c-.08,0-.12-.03-.1-.09l.27-1.01c.02-.06-.11-.33-.07-.46.03-.1.22-.08.24-.17l.81-2.98c.02-.06.07-.09.15-.09h.52c.08,0,.12.03.1.09-.08.31-.76,2.81-.76,2.81-.02.06,0,.08.04.08.08,0,.5-.29,1.24-1.14.6-.69.91-1.38,1.03-1.75.04-.12.1-.14.17-.14.19,0,.56.04.56.21,0,.15-.36,1.02-1.12,1.93-.4.48-.76.8-.88.91-.04.04-.07.07-.07.08,0,.02,0,.03.04.07Z"/>
      <path class="cls-2" d="M22.32,16.68s-.02-.08-.07-.08h-1.57c-.05,0-.09.02-.12.08l-.56.93c-.04.06-.07.1-.15.1h-.46c-.08,0-.11-.03-.11-.06,0-.04.04-.1.04-.1l2.81-4.54s.07-.09.16-.09h.36c.08,0,.09.04.1.09l.35,4.61c-.02.06-.07.1-.15.1h-.46c-.08,0-.09-.04-.1-.1l-.06-.93ZM22.16,14.14s-.02-.04-.04-.04c-.03,0-.04.01-.06.06l-1.08,1.83s0,.01,0,.04c0,.03.04.04.07.04h1.12c.05,0,.11-.02.12-.08l-.12-1.85ZM25.98,17.1c-.08,0-.09-.04-.1-.08-.02-.06-.49-2.34-.49-2.34,0-.06-.02-.09-.04-.09-.04,0-.05.04-.06.09l-.79,2.93c-.02.06-.07.09-.15.09h-.45c-.08,0-.12-.03-.1-.09l1.25-4.62c.02-.06.07-.09.15-.09h.37c.08,0,.16.03.19.09.03.06.64,2.93.64,2.93,0,0,0,.06.04.06.04,0,.08-.06.08-.06,0,0,2.16-2.87,2.22-2.93.06-.06.16-.09.24-.09h.37c.08,0,.12.03.1.09l-1.25,4.62c-.02.06-.07.09-.15.09h-.44c-.08,0-.12-.03-.1-.09l.8-2.98s.02-.05-.02-.05-.07.04-.07.04c0,0-1.73,2.33-1.78,2.39-.03.04-.07.08-.15.08h-.31ZM31.55,17.1c-.08,0-.09-.04-.1-.08-.02-.06-.49-2.34-.49-2.34,0-.06-.02-.09-.04-.09-.04,0-.05.04-.06.09l-.79,2.93c-.02.06-.07.09-.15.09h-.45c-.08,0-.12-.03-.1-.09l1.25-4.62c.02-.06.07-.09.15-.09h.37c.08,0,.16.03.19.09.03.06.64,2.93.64,2.93,0,0,0,.06.04.06.04,0,.08-.06.08-.06,0,0,2.16-2.87,2.22-2.93.06-.06.16-.09.24-.09h.37c.08,0,.12.03.1.09l-1.25,4.62c-.02.06-.07.09-.15.09h-.44c-.08,0-.12-.03-.1-.09l.8-2.98s.02-.05-.02-.05-.07.04-.07.04c0,0-1.73,2.33-1.78,2.39-.03.04-.07.08-.15.08h-.31ZM35.37,16.33c0-1.69,1.05-3.47,2.47-3.47.97,0,1.32.68,1.32,1.49,0,1.69-1.05,3.47-2.36,3.47-1.01,0-1.43-.68-1.43-1.49ZM38.43,14.28c0-.52-.21-.85-.69-.85-.92,0-1.61,1.91-1.61,2.98,0,.49.19.88.7.88.97,0,1.59-1.93,1.59-3ZM40.08,17.62c-.02.06-.07.09-.15.09h-.5c-.08,0-.12-.03-.1-.09l1.25-4.62c.02-.06.07-.09.15-.09h.35c.08,0,.16.03.19.09.03.06.98,3.13.98,3.13,0,0,0,.05.04.05s.05-.04.05-.06l.84-3.12c.02-.06.07-.09.15-.09h.5c.08,0,.12.03.1.09l-1.25,4.62c-.02.06-.07.09-.15.09h-.35c-.08,0-.16-.03-.19-.09s-.99-3.11-.99-3.11c0,0,0-.05-.04-.05s-.04.04-.05.06l-.84,3.1ZM44.76,17.71h-.89c-.08,0-.12-.03-.11-.09l1.25-4.62c.02-.06.07-.09.15-.09h.79c1.17,0,1.82.52,1.82,1.72,0,1.45-1.1,3.08-3.02,3.08ZM46.98,14.61c0-.78-.41-1.14-1.15-1.14-.11,0-.19.03-.21.08-.08.31-.95,3.52-.95,3.52,0,.05.04.08.39.08,1,0,1.91-1.3,1.91-2.54ZM48.65,13.65s.07-.1.13-.14c.15-.1.33-.22.33-.36s-.1-.2-.1-.39c0-.17.19-.33.47-.33s.41.14.41.34c0,.41-.49.76-.86.93-.09.04-.17.07-.25.07-.1,0-.13-.06-.13-.11ZM49.32,16.78c0-.1.02-.2.04-.31.04-.15.52-.29.67-.29.07,0,.09.03.09.08,0,.04-.04.14-.04.32,0,.35.2.67.69.67.64,0,.96-.52.96-.99,0-.92-1.56-.79-1.56-1.93,0-.86.69-1.49,1.74-1.49.83,0,1.14.39,1.15.81,0,.08,0,.17-.04.25-.04.15-.52.29-.67.29-.07,0-.12-.04-.09-.13.03-.08.04-.16.04-.23,0-.25-.16-.43-.51-.43-.56,0-.84.35-.84.77,0,.85,1.57.7,1.57,1.91,0,.92-.68,1.72-1.8,1.72-.9,0-1.41-.49-1.41-1.03Z"/>
      <g id="arm">
        <g id="Layer_16" data-name="Layer 16">
          <g>
            <path class="cls-1" d="M58.46,8.07c.25,1.54.22,4.16-.46,7.31-.31,1.45-1.02,3.08-2.51,4.99-2.33,2.96-4.36,3.75-5.7,5.84-1.14,1.78-1.38,3.63-1.46,4.79-1.95-1.42-4.35-2.83-7.24-3.92-11.29-4.27-21.9-.54-25.66.99H2.87v7.22l32.37,12.96,30.3-12.53V7.7c-.19-.59-.56-1.12-1.38-2.4-.21-.34-.53-2.11-1.07-2.67-.95-.96-3.66-.16-6.44-.49-2.43-.29-3.14-1.54-4.15-.87-.56.37,0,1.36-1.89,2.28-1.73.84-1.85,1.68-1.83,2.44.03,1.14,1.9,1.54,1.83,2.79-.02.45-.27.55-.26,1.13,0,.05.03,1.11.7,1.57.57.4-.17-.58,3.05-.35,1.79.13,1.97-.09,2.62-.44.49-.26,1.33-.9,1.83-2.62"/>
            <path class="cls-2" d="M58.1,8.17c.73,4.92-.74,9.9-4.21,13.45-1.31,1.34-2.93,2.39-4.07,3.88-1.22,1.59-1.72,3.53-1.88,5.5l.56-.32c-7.53-5.41-16.83-7.02-25.85-5.19-1.64.33-3.25.77-4.83,1.3-.82.28-1.72.79-2.56.92-.72.11-1.56,0-2.29,0H2.87c-.2,0-.38.17-.38.38v7.22c0,.18.12.3.28.36,9.25,3.7,18.49,7.41,27.74,11.11,1.42.57,2.93,1.41,4.42,1.77.69.17,1.37-.31,2.02-.58l15.5-6.41c4.4-1.82,8.8-3.64,13.19-5.45.16-.06.28-.18.28-.36V10.81c0-.99.16-2.13,0-3.11-.2-1.23-1.32-2.17-1.68-3.36-.4-1.31-.75-2.35-2.25-2.54-2.24-.28-4.48.39-6.69-.36-.89-.3-2.16-1.22-3.06-.44-.32.28-.34.64-.51,1.01-.48,1.06-1.72,1.26-2.52,2.01s-1.13,1.93-.5,2.85,1.58,1.06,1.39,2.34c-.09.62-.18,1.08.07,1.7.34.84.78,1.15,1.51.85,1.48-.61,3.13.16,4.6-.41s2.17-1.76,2.63-3.16c.15-.46-.57-.66-.72-.2-.43,1.32-1.26,2.6-2.75,2.79-1.26.16-2.71-.37-3.91.21-.09.04-.19.14-.29.17-.3.1.04.05.06.06-.91-.32-.45-1.61-.36-2.19.18-1.25-.85-1.63-1.52-2.47-1.39-1.74,1.85-2.64,2.63-3.63.27-.34.29-.85.54-1.16.51-.63,1.25-.1,1.85.15,1.72.71,3.5.71,5.33.64.79-.03,1.72-.18,2.48.05.92.28,1.05,1.26,1.3,2.07.42,1.38,1.62,2.3,1.62,3.77v27.28l.28-.36c-9.09,3.76-18.19,7.52-27.28,11.28l-2.23.92c-.22.09-.99.28-.6.32-.31-.04-.69-.28-.98-.39l-2.38-.95-16.49-6.6c-4.17-1.67-8.34-3.34-12.51-5.01l.28.36v-7.22l-.38.38h11.83c.63,0,.97-.08,1.58-.32,1.27-.49,2.57-.92,3.88-1.28,4.01-1.1,8.19-1.6,12.34-1.28,5.66.43,11.02,2.45,15.62,5.76.25.18.54-.07.56-.32.19-2.37,1-4.52,2.76-6.17s3.42-2.95,4.78-4.84c2.42-3.35,3.19-7.97,2.59-12.03-.07-.48-.79-.27-.72.2h0Z"/>
          </g>
          <path class="cls-2" d="M16.85,37.64c8.12,3.22,17.99,3.29,26.21.38.45-.16.26-.88-.2-.72-8.11,2.86-17.8,2.8-25.81-.38-.45-.18-.64.55-.2.72h0Z"/>
          <path class="cls-2" d="M51.4,6.51c.58.61,1.33,1.14,2.19,1.23.27.03.58,0,.81-.16.33-.22.44-.61.44-1-.01-.55-.22-1.1-.48-1.58-.1-.18-.34-.23-.51-.13-.18.11-.23.33-.13.51s.18.36.24.55c.03.09.06.18.08.27.01.05.02.09.03.14,0,.02.02.13.01.07,0,.08.01.15.01.23,0,.04,0,.08,0,.12,0-.07,0,0,0,.04,0,.03-.02.06-.03.09.01-.06.01-.03,0,0,0,.01-.02.02-.02.03-.01.04.05-.04.01-.02,0,0-.05.05-.05.05,0,0,.08-.05,0-.01-.01,0-.07.04-.01.01.05-.03,0,0-.03,0-.02,0-.05.01-.07.02-.09.02.07,0,0,0-.02,0-.05,0-.07,0-.06,0-.12,0-.18,0-.07,0,.07.01-.02,0-.03,0-.06-.01-.08-.02-.07-.02-.14-.03-.21-.06-.04-.01-.07-.02-.11-.04-.02,0-.09-.04-.04-.01-.08-.03-.15-.07-.23-.11-.39-.21-.69-.46-1-.78-.14-.15-.39-.14-.53,0s-.14.38,0,.53h0Z"/>
          <path class="cls-2" d="M54.07,6.89c-1.13.61-2.26,1.22-3.4,1.83-.42.23-.05.88.38.65,1.13-.61,2.26-1.22,3.4-1.83.42-.23.05-.88-.38-.65h0Z"/>
        </g>
      </g>
    </g>
  </g>
</svg>