<?xml version="1.0" encoding="UTF-8"?>
<svg id="Layer_2" data-name="Layer 2" xmlns="http://www.w3.org/2000/svg" viewBox="0 0 337.75 255.45">
  <g id="Layer_1-2" data-name="Layer 1">
    <path d="M6.01,255.45h64.41c3.14,0,6.15-2.76,6-6s-2.64-6-6-6H6.01c-3.14,0-6.15,2.76-6,6s2.64,6,6,6h0Z"/>
    <path d="M91.48,185.78h135.77c6.25,0,12.52.13,18.77,0,.09,0,.17,0,.26,0,3.14,0,6.15-2.76,6-6s-2.64-6-6-6H110.51c-6.25,0-12.52-.13-18.77,0-.09,0-.17,0-.26,0-3.14,0-6.15,2.76-6,6s2.64,6,6,6h0Z"/>
    <path d="M105.79,12.01h63.09c3.14,0,6.15-2.76,6-6S172.24,0,168.88,0h-63.09c-3.14,0-6.15,2.76-6,6s2.64,6,6,6h0Z"/>
    <path d="M131.32,12c3.7,3.91,7.4,7.83,11.1,11.74l17.69,18.71c1.35,1.43,2.7,2.86,4.05,4.29,1.62,1.71,4.75,1.76,6.36,0s1.73-4.54,0-6.36c-3.7-3.91-7.4-7.83-11.1-11.74l-17.69-18.71c-1.35-1.43-2.7-2.86-4.05-4.29-1.62-1.71-4.75-1.76-6.36,0s-1.73,4.54,0,6.36h0Z"/>
    <path d="M111.79,54.23V8.67c0-3.14-2.76-6.15-6-6s-6,2.64-6,6v45.56c0,3.14,2.76,6.15,6,6s6-2.64,6-6h0Z"/>
    <path d="M174.88,171.78V26.39c0-6.7.13-13.41,0-20.1,0-.09,0-.19,0-.28,0-3.14-2.76-6.15-6-6s-6,2.64-6,6v145.39c0,6.7-.13,13.41,0,20.1,0,.09,0,.19,0,.28,0,3.14,2.76,6.15,6,6s6-2.64,6-6h0Z"/>
    <path d="M94.67,255.45h64.41c3.14,0,6.15-2.76,6-6s-2.64-6-6-6h-64.41c-3.14,0-6.15,2.76-6,6s2.64,6,6,6h0Z"/>
    <path d="M180.67,255.45h64.41c3.14,0,6.15-2.76,6-6s-2.64-6-6-6h-64.41c-3.14,0-6.15,2.76-6,6s2.64,6,6,6h0Z"/>
    <path d="M267.34,255.45h64.41c3.14,0,6.15-2.76,6-6s-2.64-6-6-6h-64.41c-3.14,0-6.15,2.76-6,6s2.64,6,6,6h0Z"/>
  </g>
</svg>