<?xml version="1.0" encoding="UTF-8"?>
<svg id="Layer_2" data-name="Layer 2" xmlns="http://www.w3.org/2000/svg" viewBox="0 0 562.33 184.17">
  <g id="Hell-Diver-Text">
    <polygon points="0 37.37 0 92 21.01 92 21.01 74.11 43.51 74.11 43.51 92 65.02 92 65.02 37.37 44.51 37.37 44.51 54.78 21.01 54.78 21.01 37.37 0 37.37"/>
    <polygon points="131.66 37.37 131.66 51.7 95.84 51.7 95.84 56.05 129.98 56.05 129.98 71.64 95.84 71.64 95.84 75.99 131.66 75.99 131.66 92 74.27 92 74.27 37.37 131.66 37.37"/>
    <polygon points="140.29 37.37 161.67 37.37 161.67 76.17 191.68 76.17 191.68 92 140.29 92 140.29 37.37"/>
    <polygon points="198.15 37.37 219.53 37.37 219.53 76.17 249.54 76.17 249.54 92 198.15 92 198.15 37.37"/>
    <polygon points="491.08 36.89 491.08 51.34 455.26 51.34 455.26 55.73 489.4 55.73 489.4 71.46 455.26 71.46 455.26 75.85 491.08 75.85 491.08 92 433.69 92 433.69 36.89 491.08 36.89"/>
    <path d="M314.72,36.89l11.1,12.74v31.81l-10.91,10.56h-58.52v-54.72l58.33-.39ZM277.71,54.17v21.63s26.32-.18,26.51,0,0-21.63,0-21.63h-26.51Z"/>
    <rect x="333.1" y="36.89" width="20.82" height="55.11"/>
    <polygon points="357.98 36.89 378.49 36.89 393.62 72.3 409.12 36.89 430.13 36.89 404.62 92 382.99 92 357.98 36.89"/>
    <path d="M550.79,36.89l10.38,12.07v12.92l-6.75,7.32,6.75,8.53v14.27h-21.13v-15.12h-20.13v15.12h-20.76v-55.11h51.64ZM519.4,51.52v9.88h20.76v-9.88h-20.76Z"/>
  </g>
  <g id="Banner">
    <polygon points="0 131.67 14.83 150.33 251.83 150.33 251.83 131.67 0 131.67"/>
    <polygon points="561.17 131.67 546.33 150.33 309.33 150.33 309.33 131.67 561.17 131.67"/>
    <polygon points="19.56 155.06 25.11 161.95 243.33 161.95 250.22 155.06 19.56 155.06"/>
    <polygon points="540 155.06 534.44 161.95 316.22 161.95 309.33 155.06 540 155.06"/>
    <polygon points="104.83 167 110 174.67 178.5 174.67 172.67 167 104.83 167"/>
    <polygon points="180 167 185.12 174.67 253 174.67 247.22 167 180 167"/>
    <polygon points="457.5 167 452.33 174.67 383.83 174.67 389.67 167 457.5 167"/>
    <polygon points="382.33 167 377.21 174.67 309.33 174.67 315.11 167 382.33 167"/>
  </g>
  <g id="Skull">
    <path d="M280,123.72l22.5,7.94v23.39s6.42,6.89,6.42,6.89l-9.17,12.72-7.75-2.83-2.41,9.44-9.59,2.89-9.59-2.89-2.41-9.44-7.75,2.83-9.17-12.72,6.42-6.89v-23.39l22.5-7.94ZM267.75,152.41c-3.56,0-6.45,2.89-6.45,6.45s2.89,6.45,6.45,6.45,6.45-2.89,6.45-6.45-2.89-6.45-6.45-6.45ZM293.36,152.41c-3.56,0-6.45,2.89-6.45,6.45s2.89,6.45,6.45,6.45,6.45-2.89,6.45-6.45-2.89-6.45-6.45-6.45ZM279.75,166.11l-3.5,4.69s-.01.05,0,.06l2.03,1.77s.06.02.08,0l2.07-2.62,2.15,2.45c.1.12.28.12.39.02l1.52-1.48c.09-.09.1-.23.02-.33l-3.59-4.57c-.31-.39-.9-.38-1.19.02Z"/>
  </g>
  <g id="Name_Trooper-Tyler" data-name="Name Trooper-Tyler">
    <g>
      <path d="M240.54,6.99h-6.12v21.21h-7.45V6.99h-6.12V0h19.69v6.99Z"/>
      <path d="M254.75,10.76c.46-.52.92-1.04,1.38-1.56.46-.52.92-1.04,1.38-1.56.15-.15.28-.38.37-.67.09-.29.14-.58.14-.85V.23h7.45v6.3c0,.8-.1,1.48-.3,2.05s-.56,1.16-1.08,1.77l-5.52,6.12v11.73h-7.45v-11.55l-5.66-6.3c-.52-.55-.88-1.13-1.08-1.72-.2-.6-.3-1.28-.3-2.05V.23h7.45v5.93c0,.28.04.55.12.83.08.28.19.49.34.64l2.76,3.13Z"/>
      <path d="M288.84,6.99h-6.12v21.21h-7.45V6.99h-6.12V0h19.69v6.99Z"/>
      <path d="M292.1,6.72c0-2.12.51-3.73,1.52-4.85,1.01-1.12,2.64-1.68,4.88-1.68h7.64c2.21,0,3.85.52,4.92,1.56,1.07,1.04,1.61,2.7,1.61,4.97v21.48h-7.45v-8.74h-5.66v8.74h-7.45V6.72ZM299.56,12.47h5.66v-4.42c0-.58-.26-.87-.78-.87h-4.05c-.55,0-.83.28-.83.83v4.46Z"/>
      <path d="M324.35,14.9v13.06h-7.45V3.22c0-.4.04-.78.11-1.15s.22-.69.44-.97c.21-.28.52-.5.92-.67.4-.17.92-.25,1.56-.25h.97c.98,0,1.75.18,2.3.53s1,.84,1.33,1.45l5.66,11.18V.18h7.5v24.98c0,.8-.21,1.5-.64,2.12-.43.61-1.27.92-2.53.92h-1.24c-.98,0-1.71-.18-2.19-.53s-.88-.84-1.22-1.45l-5.52-11.32Z"/>
    </g>
  </g>
  <g id="Ship_Name-Tyler" data-name="Ship Name-Tyler">
    <g>
      <path d="M147.52,111.79c-1.42,0-2.47-.4-3.15-1.2-.68-.8-1.02-1.93-1.02-3.39v-2.58c0-2.88,1.4-4.32,4.2-4.32h9.21v4.56h-7.89c-.16,0-.31.03-.45.09-.14.06-.21.21-.21.45v1.32c0,.26.07.41.21.45.14.04.29.06.45.06h3.63c1.42,0,2.48.39,3.2,1.17.71.78,1.06,1.92,1.06,3.42v2.52c0,2.82-1.4,4.23-4.2,4.23h-9.21v-4.56h7.83c.16,0,.32-.02.48-.06.16-.04.24-.18.24-.42v-1.17c0-.22-.08-.37-.24-.45-.16-.08-.32-.12-.48-.12h-3.66Z"/>
      <path d="M173.29,111.76h-8.58v1.65c0,.2.03.35.09.45.06.1.21.15.45.15h8.04v4.56h-9.24c-2.8,0-4.2-1.42-4.2-4.26v-14.01h13.44v4.56h-8.58v2.34h8.58v4.56Z"/>
      <path d="M180.52,111.79c-1.42,0-2.47-.4-3.15-1.2-.68-.8-1.02-1.93-1.02-3.39v-2.58c0-2.88,1.4-4.32,4.2-4.32h9.21v4.56h-7.89c-.16,0-.31.03-.45.09-.14.06-.21.21-.21.45v1.32c0,.26.07.41.21.45.14.04.29.06.45.06h3.63c1.42,0,2.48.39,3.2,1.17.71.78,1.06,1.92,1.06,3.42v2.52c0,2.82-1.4,4.23-4.2,4.23h-9.21v-4.56h7.83c.16,0,.32-.02.48-.06.16-.04.24-.18.24-.42v-1.17c0-.22-.08-.37-.24-.45-.16-.08-.32-.12-.48-.12h-3.66Z"/>
      <path d="M215.8,100.3l-6.33,9.03,6.51,9.24h-6.12l-4.02-5.88v5.88h-4.86v-18.27h4.86v5.79l4.05-5.79h5.91Z"/>
      <path d="M222.19,100.3v18.27h-4.86v-18.27h4.86Z"/>
      <path d="M229.81,109.9v8.52h-4.86v-16.14c0-.26.03-.51.08-.75.05-.24.15-.45.29-.63.14-.18.34-.33.6-.44.26-.11.6-.17,1.02-.17h.63c.64,0,1.14.12,1.5.34.36.23.65.55.87.95l3.69,7.29v-8.58h4.89v16.29c0,.52-.14.98-.42,1.38-.28.4-.83.6-1.65.6h-.81c-.64,0-1.12-.12-1.42-.35-.31-.23-.58-.54-.8-.94l-3.6-7.38Z"/>
      <path d="M246.01,113.41c0,.2.03.35.09.45.06.1.21.15.45.15h3.33c.24,0,.36-.13.36-.39v-1.56c0-.22-.15-.33-.45-.33h-2.58v-4.53h4.59c.66,0,1.21.07,1.63.21s.77.35,1,.63c.24.28.41.62.5,1.04s.13.88.13,1.39v4.74c0,.58-.04,1.08-.13,1.5s-.25.76-.5,1.04c-.24.27-.57.48-.99.62s-.96.21-1.62.21h-6.48c-2.8,0-4.2-1.42-4.2-4.26v-9.72c0-1.48.35-2.56,1.04-3.25.69-.69,1.75-1.04,3.17-1.04h8.64v4.56h-7.38c-.4,0-.6.21-.6.63v7.92Z"/>
      <path d="M275.02,100.3c1.42,0,2.47.34,3.17,1.04.69.69,1.04,1.78,1.04,3.25v9.72c0,2.84-1.4,4.26-4.2,4.26h-5.1c-2.8,0-4.2-1.42-4.2-4.26v-9.72c0-1.48.34-2.56,1.04-3.25.69-.69,1.74-1.04,3.16-1.04h5.1ZM274.36,105.49c0-.4-.17-.61-.51-.63h-2.67c-.4,0-.6.21-.6.63v7.92c0,.18.02.32.06.42.04.1.16.16.36.18h2.82c.24,0,.39-.05.45-.15.06-.1.09-.25.09-.45v-7.92Z"/>
      <path d="M295.42,111.67h-8.58v6.9h-4.86v-14.01c0-2.84,1.4-4.26,4.2-4.26h9.24v4.56h-8.04c-.24,0-.39.05-.45.15-.06.1-.09.25-.09.45v1.65h8.58v4.56Z"/>
      <path d="M306.28,104.56c0-1.38.33-2.43.99-3.17.66-.73,1.72-1.09,3.18-1.09h4.98c1.44,0,2.51.34,3.21,1.02.7.68,1.05,1.76,1.05,3.24v14.01h-4.86v-5.7h-3.69v5.7h-4.86v-14.01ZM311.14,108.31h3.69v-2.88c0-.38-.17-.57-.51-.57h-2.64c-.36,0-.54.18-.54.54v2.91Z"/>
      <path d="M322.48,100.3h4.86v13.17c0,.36.18.54.54.54h2.64c.34,0,.51-.19.51-.57v-13.14h4.86v14.01c0,1.48-.35,2.56-1.05,3.24-.7.68-1.77,1.02-3.21,1.02h-4.98c-1.46,0-2.52-.37-3.18-1.1-.66-.73-.99-1.78-.99-3.17v-14.01Z"/>
      <path d="M338.68,118.57v-18.27h9.24c1.42,0,2.47.34,3.17,1.04.69.69,1.04,1.78,1.04,3.25v9.72c0,2.84-1.4,4.26-4.2,4.26h-9.24ZM347.26,105.58c0-.28-.06-.47-.17-.57-.11-.1-.28-.15-.5-.15h-3.06v9.15h3.06c.44,0,.66-.23.66-.69v-7.74Z"/>
      <path d="M354.88,104.56c0-1.38.33-2.43.99-3.17.66-.73,1.72-1.09,3.18-1.09h4.98c1.44,0,2.51.34,3.21,1.02.7.68,1.05,1.76,1.05,3.24v14.01h-4.86v-5.7h-3.69v5.7h-4.86v-14.01ZM359.74,108.31h3.69v-2.88c0-.38-.17-.57-.51-.57h-2.64c-.36,0-.54.18-.54.54v2.91Z"/>
      <path d="M375.94,113.41c0,.2.03.35.09.45.06.1.21.15.45.15h7.74v4.56h-8.94c-2.8,0-4.2-1.42-4.2-4.26v-9.72c0-1.48.34-2.56,1.04-3.25s1.75-1.04,3.17-1.04h8.94v4.56h-7.68c-.4,0-.6.21-.6.63v7.92Z"/>
      <path d="M391.42,100.3v18.27h-4.86v-18.27h4.86Z"/>
      <path d="M406.6,104.74h-3.99v13.83h-4.86v-13.83h-3.99v-4.56h12.84v4.56Z"/>
      <path d="M415.87,107.2c.3-.34.6-.68.9-1.02l.9-1.02c.1-.1.18-.25.24-.44.06-.19.09-.38.09-.55v-3.84h4.86v4.11c0,.52-.07.96-.2,1.33s-.37.75-.71,1.15l-3.6,3.99v7.65h-4.86v-7.53l-3.69-4.11c-.34-.36-.58-.73-.71-1.12-.13-.39-.2-.83-.2-1.33v-4.14h4.86v3.87c0,.18.02.36.08.54.05.18.12.32.22.42l1.8,2.04Z"/>
    </g>
  </g>
  <g id="rectangle_for_ship_name" data-name="rectangle for ship name">
    <rect x="0" y="102.22" width="104.83" height="15.22"/>
    <rect x="368.35" y="8.17" width="192.82" height="15.22"/>
    <rect y="8.17" width="192.82" height="15.22"/>
    <rect x="457.5" y="102.22" width="104.83" height="15.22"/>
  </g>
</svg>