<?xml version="1.0" encoding="UTF-8"?>
<svg xmlns="http://www.w3.org/2000/svg" viewBox="0 0 311.63 343.57">
  <g id="Layer_1" data-name="Layer 1">
    <g>
      <rect x="3" y="3" width="247.99" height="337.57" rx="6.05" ry="6.05" fill="#fff"/>
      <path d="M244.94,6c1.68,0,3.05,1.37,3.05,3.05v325.47c0,1.68-1.37,3.05-3.05,3.05H9.05c-1.68,0-3.05-1.37-3.05-3.05V9.05c0-1.68,1.37-3.05,3.05-3.05h235.89M244.94,0H9.05C4.05,0,0,4.05,0,9.05v325.47c0,5,4.05,9.05,9.05,9.05h235.89c5,0,9.05-4.05,9.05-9.05V9.05c0-5-4.05-9.05-9.05-9.05h0Z"/>
    </g>
    <path d="M26.81,42.8c1.24-.69,2.53-1.32,3.81-1.93.65-.31,1.31-.61,1.97-.91.35-.15.69-.31,1.04-.46.22-.1.45-.22.68-.29-.47.15-.66.27-.08.04,1.8-.73,3.61-1.43,5.45-2.06,2.04-.7,4.1-1.32,6.19-1.84,1.08-.27,2.17-.52,3.27-.73.52-.1,1.04-.2,1.56-.29.26-.04.52-.08.78-.13.88-.14-.37.03.18-.03,2.14-.25,4.27-.4,6.42-.33.73.02,1.47.07,2.2.13.36.03.71.08,1.07.11.76.08-.34-.04-.4-.06.25.06.53.08.79.12,6.08.98,11.84,3.33,17.7,5.15,8.19,2.54,16.67,3.95,25.26,4.1s17.63-1,26.08-3.51c6.02-1.79,11.85-4.29,18.03-5.49.7-.14,1.44-.19,2.13-.36-1.33.31-.23.03.17,0,.46-.05.93-.09,1.4-.12,1.52-.1,3.05-.12,4.57-.02.32.02.63.05.95.08.16.02.31.04.47.05.72.06-.47-.05-.5-.07.45.28,1.5.24,2.05.35,1.27.26,2.52.6,3.76.97,5.65,1.73,11.05,4.13,16.78,5.6,8.94,2.3,18.66,3.26,27.83,1.99,7.67-1.06,15.15-3.71,22.08-7.13.41-.2.82-.41,1.22-.62,2.07-1.12,2.9-4.16,1.61-6.16-1.36-2.1-3.94-2.82-6.16-1.61-1.48.8-3.03,1.49-4.57,2.17-.87.39.77-.31.16-.07-.18.07-.37.15-.55.23-.39.16-.77.31-1.16.46-.95.37-1.92.73-2.89,1.07-2.06.71-4.15,1.34-6.26,1.86-1.13.28-2.27.52-3.41.73-.55.1-1.1.19-1.65.27-.16.03-.88.1-.05,0-.35.04-.7.08-1.04.12-2.45.25-4.91.23-7.37.15s-4.74-.25-7.09-.54c-.25-.03-.5-.06-.74-.09.15.02.95.14.1.01-.47-.07-.94-.14-1.41-.22-1.01-.17-2.01-.35-3.01-.56-6.07-1.27-11.77-3.54-17.61-5.57s-11.42-2.98-17.36-2.37c-6.5.66-12.5,2.8-18.65,4.85-3.37,1.12-6.77,2.14-10.24,2.91-.9.2-1.81.38-2.71.54-.47.09-.94.17-1.42.24-.24.04-.48.08-.73.11-.15.02-1.4.19-.29.05-2.28.3-4.57.49-6.86.6-4.88.22-9.76.02-14.61-.53-.88-.1-.11,0,.06.01-.25-.03-.5-.07-.74-.11-.49-.07-.97-.15-1.46-.23-1.05-.17-2.09-.37-3.13-.58-1.82-.38-3.62-.82-5.41-1.32-6.12-1.69-12.01-4.17-18.21-5.57-14.89-3.36-30.38,1.61-43.58,8.49-.34.18-.68.35-1.01.54-2.06,1.15-2.91,4.14-1.61,6.16s3.96,2.84,6.16,1.61h0Z"/>
    <path d="M26.81,81.58c1.24-.69,2.53-1.32,3.81-1.93.65-.31,1.31-.61,1.97-.91.35-.15.69-.31,1.04-.46.22-.1.45-.22.68-.29-.47.15-.66.27-.08.04,1.8-.73,3.61-1.43,5.45-2.06,2.04-.7,4.1-1.32,6.19-1.84,1.08-.27,2.17-.52,3.27-.73.52-.1,1.04-.2,1.56-.29.26-.04.52-.08.78-.13.88-.14-.37.03.18-.03,2.14-.25,4.27-.4,6.42-.33.73.02,1.47.07,2.2.13.36.03.71.08,1.07.11.76.08-.34-.04-.4-.06.25.06.53.08.79.12,6.08.98,11.84,3.33,17.7,5.15,8.19,2.54,16.67,3.95,25.26,4.1s17.63-1,26.08-3.51c6.02-1.79,11.85-4.29,18.03-5.49.7-.14,1.44-.19,2.13-.36-1.33.31-.23.03.17,0,.46-.05.93-.09,1.4-.12,1.52-.1,3.05-.12,4.57-.02.32.02.63.05.95.08.16.02.31.04.47.05.72.06-.47-.05-.5-.07.45.28,1.5.24,2.05.35,1.27.26,2.52.6,3.76.97,5.65,1.73,11.05,4.13,16.78,5.6,8.94,2.3,18.66,3.26,27.83,1.99,7.67-1.06,15.15-3.71,22.08-7.13.41-.2.82-.41,1.22-.62,2.07-1.12,2.9-4.16,1.61-6.16-1.36-2.1-3.94-2.82-6.16-1.61-1.48.8-3.03,1.49-4.57,2.17-.87.39.77-.31.16-.07-.18.07-.37.15-.55.23-.39.16-.77.31-1.16.46-.95.37-1.92.73-2.89,1.07-2.06.71-4.15,1.34-6.26,1.86-1.13.28-2.27.52-3.41.73-.55.1-1.1.19-1.65.27-.16.03-.88.1-.05,0-.35.04-.7.08-1.04.12-2.45.25-4.91.23-7.37.15s-4.74-.25-7.09-.54c-.25-.03-.5-.06-.74-.09.15.02.95.14.1.01-.47-.07-.94-.14-1.41-.22-1.01-.17-2.01-.35-3.01-.56-6.07-1.27-11.77-3.54-17.61-5.57s-11.42-2.98-17.36-2.37c-6.5.66-12.5,2.8-18.65,4.85-3.37,1.12-6.77,2.14-10.24,2.91-.9.2-1.81.38-2.71.54-.47.09-.94.17-1.42.24-.24.04-.48.08-.73.11-.15.02-1.4.19-.29.05-2.28.3-4.57.49-6.86.6-4.88.22-9.76.02-14.61-.53-.88-.1-.11,0,.06.01-.25-.03-.5-.07-.74-.11-.49-.07-.97-.15-1.46-.23-1.05-.17-2.09-.37-3.13-.58-1.82-.38-3.62-.82-5.41-1.32-6.12-1.69-12.01-4.17-18.21-5.57-14.89-3.36-30.38,1.61-43.58,8.49-.34.18-.68.35-1.01.54-2.06,1.15-2.91,4.14-1.61,6.16s3.96,2.84,6.16,1.61h0Z"/>
    <path d="M26.81,120.36c1.24-.69,2.53-1.32,3.81-1.93.65-.31,1.31-.61,1.97-.91.35-.15.69-.31,1.04-.46.22-.1.45-.22.68-.29-.47.15-.66.27-.08.04,1.8-.73,3.61-1.43,5.45-2.06,2.04-.7,4.1-1.32,6.19-1.84,1.08-.27,2.17-.52,3.27-.73.52-.1,1.04-.2,1.56-.29.26-.04.52-.08.78-.13.88-.14-.37.03.18-.03,2.14-.25,4.27-.4,6.42-.33.73.02,1.47.07,2.2.13.36.03.71.08,1.07.11.76.08-.34-.04-.4-.06.25.06.53.08.79.12,6.08.98,11.84,3.33,17.7,5.15,8.19,2.54,16.67,3.95,25.26,4.1s17.63-1,26.08-3.51c6.02-1.79,11.85-4.29,18.03-5.49.7-.14,1.44-.19,2.13-.36-1.33.31-.23.03.17,0,.46-.05.93-.09,1.4-.12,1.52-.1,3.05-.12,4.57-.02.32.02.63.05.95.08.16.02.31.04.47.05.72.06-.47-.05-.5-.07.45.28,1.5.24,2.05.35,1.27.26,2.52.6,3.76.97,5.65,1.73,11.05,4.13,16.78,5.6,8.94,2.3,18.66,3.26,27.83,1.99,7.67-1.06,15.15-3.71,22.08-7.13.41-.2.82-.41,1.22-.62,2.07-1.12,2.9-4.16,1.61-6.16-1.36-2.1-3.94-2.82-6.16-1.61-1.48.8-3.03,1.49-4.57,2.17-.87.39.77-.31.16-.07-.18.07-.37.15-.55.23-.39.16-.77.31-1.16.46-.95.37-1.92.73-2.89,1.07-2.06.71-4.15,1.34-6.26,1.86-1.13.28-2.27.52-3.41.73-.55.1-1.1.19-1.65.27-.16.03-.88.1-.05,0-.35.04-.7.08-1.04.12-2.45.25-4.91.23-7.37.15s-4.74-.25-7.09-.54c-.25-.03-.5-.06-.74-.09.15.02.95.14.1.01-.47-.07-.94-.14-1.41-.22-1.01-.17-2.01-.35-3.01-.56-6.07-1.27-11.77-3.54-17.61-5.57s-11.42-2.98-17.36-2.37c-6.5.66-12.5,2.8-18.65,4.85-3.37,1.12-6.77,2.14-10.24,2.91-.9.2-1.81.38-2.71.54-.47.09-.94.17-1.42.24-.24.04-.48.08-.73.11-.15.02-1.4.19-.29.05-2.28.3-4.57.49-6.86.6-4.88.22-9.76.02-14.61-.53-.88-.1-.11,0,.06.01-.25-.03-.5-.07-.74-.11-.49-.07-.97-.15-1.46-.23-1.05-.17-2.09-.37-3.13-.58-1.82-.38-3.62-.82-5.41-1.32-6.12-1.69-12.01-4.17-18.21-5.57-14.89-3.36-30.38,1.61-43.58,8.49-.34.18-.68.35-1.01.54-2.06,1.15-2.91,4.14-1.61,6.16s3.96,2.84,6.16,1.61h0Z"/>
    <path d="M26.81,159.15c1.24-.69,2.53-1.32,3.81-1.93.65-.31,1.31-.61,1.97-.91.35-.15.69-.31,1.04-.46.22-.1.45-.22.68-.29-.47.15-.66.27-.08.04,1.8-.73,3.61-1.43,5.45-2.06,2.04-.7,4.1-1.32,6.19-1.84,1.08-.27,2.17-.52,3.27-.73.52-.1,1.04-.2,1.56-.29.26-.04.52-.08.78-.13.88-.14-.37.03.18-.03,2.14-.25,4.27-.4,6.42-.33.73.02,1.47.07,2.2.13.36.03.71.08,1.07.11.76.08-.34-.04-.4-.06.25.06.53.08.79.12,6.08.98,11.84,3.33,17.7,5.15,8.19,2.54,16.67,3.95,25.26,4.1s17.63-1,26.08-3.51c6.02-1.79,11.85-4.29,18.03-5.49.7-.14,1.44-.19,2.13-.36-1.33.31-.23.03.17,0,.46-.05.93-.09,1.4-.12,1.52-.1,3.05-.12,4.57-.02.32.02.63.05.95.08.16.02.31.04.47.05.72.06-.47-.05-.5-.07.45.28,1.5.24,2.05.35,1.27.26,2.52.6,3.76.97,5.65,1.73,11.05,4.13,16.78,5.6,8.94,2.3,18.66,3.26,27.83,1.99,7.67-1.06,15.15-3.71,22.08-7.13.41-.2.82-.41,1.22-.62,2.07-1.12,2.9-4.16,1.61-6.16-1.36-2.1-3.94-2.82-6.16-1.61-1.48.8-3.03,1.49-4.57,2.17-.87.39.77-.31.16-.07-.18.07-.37.15-.55.23-.39.16-.77.31-1.16.46-.95.37-1.92.73-2.89,1.07-2.06.71-4.15,1.34-6.26,1.86-1.13.28-2.27.52-3.41.73-.55.1-1.1.19-1.65.27-.16.03-.88.1-.05,0-.35.04-.7.08-1.04.12-2.45.25-4.91.23-7.37.15s-4.74-.25-7.09-.54c-.25-.03-.5-.06-.74-.09.15.02.95.14.1.01-.47-.07-.94-.14-1.41-.22-1.01-.17-2.01-.35-3.01-.56-6.07-1.27-11.77-3.54-17.61-5.57s-11.42-2.98-17.36-2.37c-6.5.66-12.5,2.8-18.65,4.85-3.37,1.12-6.77,2.14-10.24,2.91-.9.2-1.81.38-2.71.54-.47.09-.94.17-1.42.24-.24.04-.48.08-.73.11-.15.02-1.4.19-.29.05-2.28.3-4.57.49-6.86.6-4.88.22-9.76.02-14.61-.53-.88-.1-.11,0,.06.01-.25-.03-.5-.07-.74-.11-.49-.07-.97-.15-1.46-.23-1.05-.17-2.09-.37-3.13-.58-1.82-.38-3.62-.82-5.41-1.32-6.12-1.69-12.01-4.17-18.21-5.57-14.89-3.36-30.38,1.61-43.58,8.49-.34.18-.68.35-1.01.54-2.06,1.15-2.91,4.14-1.61,6.16s3.96,2.84,6.16,1.61h0Z"/>
  </g>
  <g id="Magnifying_Glass" data-name="Magnifying Glass">
    <rect x="252.21" y="153.78" width="27.93" height="111.79" rx="13.96" ry="13.96" transform="translate(-71.59 236.67) rotate(-42.8)" fill="#3a3134" stroke="#000" stroke-miterlimit="10" stroke-width="6"/>
    <circle cx="196.84" cy="132.06" r="59.16" fill="#fff" stroke="#000" stroke-miterlimit="10" stroke-width="6"/>
    <circle cx="196.84" cy="132.06" r="54.53" fill="#fff" stroke="#000" stroke-miterlimit="10" stroke-width="6"/>
    <path d="M154.71,111.59c.85-.16,1.71-.3,2.57-.42l-2.39.32c3.49-.45,7.01-.55,10.5-.09l-2.39-.32c3.97.55,7.78,1.78,11.56,3.07,4.39,1.5,8.78,2.98,13.31,4.02,6.95,1.59,14.13,2.38,21.26,2.5,7.7.12,15.41-1.21,22.74-3.53,4.57-1.45,9.14-3.2,13.42-5.36s5.75-8.4,3.23-12.31c-2.77-4.3-7.81-5.5-12.31-3.23-1.13.57-2.3,1.08-3.47,1.57l2.15-.91c-6.37,2.68-13.07,4.73-19.93,5.66l2.39-.32c-6.48.83-13.14.46-19.6-.39l2.39.32c-6.4-.87-12.58-2.57-18.68-4.65-2.41-.82-4.81-1.67-7.26-2.38-3.08-.9-6.19-1.42-9.38-1.8-4.95-.59-9.99,0-14.87.9-2.11.39-4.33,2.35-5.38,4.14-1.13,1.93-1.61,4.77-.91,6.94s2.05,4.28,4.14,5.38c2.24,1.19,4.44,1.37,6.94.91h0Z"/>
    <path d="M150.07,152.15c4.49-1.53,8.99-3.03,13.71-3.67l-2.39.32c2.94-.37,5.91-.45,8.86-.08l-2.39-.32c8.05,1.09,15.42,5.11,23.26,7.08,6.54,1.64,13.36,2.44,20.09,2.56,7.24.13,14.47-1.17,21.32-3.49,4.34-1.47,8.7-3.21,12.74-5.4s5.8-8.32,3.23-12.31c-2.71-4.2-7.88-5.63-12.31-3.23-1.64.89-3.36,1.66-5.08,2.39l2.15-.91c-5.49,2.32-11.23,4.1-17.15,4.91l2.39-.32c-5.63.72-11.42.38-17.04-.36l2.39.32c-7-.96-13.58-3.1-20.19-5.52-6.24-2.29-12.66-3.97-19.37-3.6s-12.79,2.15-19.01,4.27c-2.23.76-4.17,2.06-5.38,4.14-1.13,1.93-1.61,4.77-.91,6.94,1.43,4.41,6.3,7.91,11.07,6.29h0Z"/>
  </g>
</svg>