<?xml version="1.0" encoding="UTF-8"?>
<svg id="Layer_2" data-name="Layer 2" xmlns="http://www.w3.org/2000/svg" xmlns:xlink="http://www.w3.org/1999/xlink" viewBox="0 0 181.1 84.38">
  <defs>
    <style>
      .cls-1 {
        letter-spacing: -.03em;
      }

      .cls-2 {
        letter-spacing: .02em;
      }

      .cls-3, .cls-4 {
        fill: #231f20;
      }

      .cls-5 {
        fill: #74cac2;
      }

      .cls-4 {
        font-family: ParitySans, 'Parity Sans';
        font-size: 11.05px;
      }

      .cls-6 {
        letter-spacing: .01em;
      }

      .cls-7 {
        fill: #444343;
        fill-rule: evenodd;
      }

      .cls-8 {
        fill: url(#linear-gradient);
      }
    </style>
    <linearGradient id="linear-gradient" x1="96.23" y1="-15.52" x2="96.23" y2="81.09" gradientUnits="userSpaceOnUse">
      <stop offset=".41" stop-color="#d5d7d8"/>
      <stop offset=".45" stop-color="#b5b7b9"/>
      <stop offset=".5" stop-color="#97999c"/>
      <stop offset=".55" stop-color="#7e8084"/>
      <stop offset=".61" stop-color="#6a6d71"/>
      <stop offset=".68" stop-color="#5d6064"/>
      <stop offset=".77" stop-color="#55585d"/>
      <stop offset=".93" stop-color="#53565b"/>
    </linearGradient>
  </defs>
  <g id="PasswordGenerator">
    <rect x="11.41" y="48.97" width="164.67" height="11.27" rx="5.63" ry="5.63"/>
    <path class="cls-5" d="M19.79,56.37l-5.37,20.73c-1.78,1.75,17.05.99-10.75.98-5.85,0-2.65-4.71-.85-9.95,4.31-9.25,3.13-7.9,8.29-16.8,1.42-2.48,2.23-2.84,6.39-2.68,2.81.11,3.76,5.2,2.29,7.71Z"/>
    <rect x="0" y="73.12" width="164.67" height="11.27" rx="5.63" ry="5.63"/>
    <polygon class="cls-5" points="17.18 48.66 176.41 48.66 162.27 73.12 3.04 73.12 17.18 48.66"/>
    <path class="cls-5" d="M180.37,56.31s-4.83,9.32-9.97,18.46c-2.73,4.86-5.52,9.64-9.2,9.6,1.46-.25,3.42-2.22,3.42-3.19,0-1.9.07-3.1.01-4.56-.08-1.95-1.86-3.51-3.6-3.51-1.91-1.19-1.38-3.02-.78-5.31,5.16-8.9,6.26-7.64,11.42-16.54,1.42-2.48,4.94-3.25,6.92-2.06,2.38,1.43,3.24,4.59,1.76,7.1Z"/>
    <g id="belt_lines" data-name="belt lines">
      <path class="cls-7" d="M4.07,73.12c-.32,0-1.16.06-1.41.16-1.05.46-1.2.63-1.46.88,3.58-8.04,7.17-16.08,10.75-24.11.2-.25.55-.63,1.09-.93.78-.43,1.53-.46,1.88-.45-3.79,8.5-7.06,15.96-10.85,24.46Z"/>
      <path class="cls-7" d="M19.72,48.66c-3.79,8.5-7.15,15.96-10.94,24.46h-2.35l10.94-24.46"/>
      <path class="cls-7" d="M24.58,48.66c-3.79,8.5-7.15,15.96-10.94,24.46h-2.35l10.94-24.46"/>
      <path class="cls-7" d="M29.53,48.66c-3.79,8.5-7.15,15.96-10.94,24.46h-2.35l10.94-24.46"/>
      <path class="cls-7" d="M34.38,48.66c-3.79,8.5-7.15,15.96-10.94,24.46h-2.35l10.94-24.46"/>
      <path class="cls-7" d="M39,48.66c-3.79,8.5-7.15,15.96-10.94,24.46h-2.35l10.94-24.46"/>
      <path class="cls-7" d="M43.86,48.66c-3.79,8.5-7.15,15.96-10.94,24.46h-2.35l10.94-24.46"/>
      <path class="cls-7" d="M48.81,48.66c-3.79,8.5-7.15,15.96-10.94,24.46h-2.35l10.94-24.46"/>
      <path class="cls-7" d="M53.67,48.66c-3.79,8.5-7.15,15.96-10.94,24.46h-2.35l10.94-24.46"/>
      <path class="cls-7" d="M58.58,48.66c-3.79,8.5-7.15,15.96-10.94,24.46h-2.35l10.94-24.46"/>
      <path class="cls-7" d="M63.44,48.66c-3.79,8.5-7.15,15.96-10.94,24.46h-2.35l10.94-24.46"/>
      <path class="cls-7" d="M68.39,48.66c-3.79,8.5-7.15,15.96-10.94,24.46h-2.35l10.94-24.46"/>
      <path class="cls-7" d="M73.25,48.66c-3.79,8.5-7.15,15.96-10.94,24.46h-2.35l10.94-24.46"/>
      <path class="cls-7" d="M124.76,48.66c-3.79,8.5-7.15,15.96-10.94,24.46h-2.35l10.94-24.46"/>
      <path class="cls-7" d="M129.71,48.66c-3.79,8.5-7.15,15.96-10.94,24.46h-2.35l10.94-24.46"/>
      <path class="cls-7" d="M134.57,48.66c-3.79,8.5-7.15,15.96-10.94,24.46h-2.35l10.94-24.46"/>
      <path class="cls-7" d="M139.19,48.66c-3.79,8.5-7.15,15.96-10.94,24.46h-2.35l10.94-24.46"/>
      <path class="cls-7" d="M144.04,48.66c-3.79,8.5-7.15,15.96-10.94,24.46h-2.35l10.94-24.46"/>
      <path class="cls-7" d="M149,48.66c-3.79,8.5-7.15,15.96-10.94,24.46h-2.35l10.94-24.46"/>
      <path class="cls-7" d="M153.85,48.66c-3.79,8.5-7.15,15.96-10.94,24.46h-2.35l10.94-24.46"/>
      <path class="cls-7" d="M158.77,48.66c-3.79,8.5-7.15,15.96-10.94,24.46h-2.35l10.94-24.46"/>
      <path class="cls-7" d="M163.63,48.66c-3.79,8.5-7.15,15.96-10.94,24.46h-2.35l10.94-24.46"/>
      <path class="cls-7" d="M168.58,48.66c-3.79,8.5-7.15,15.96-10.94,24.46h-2.35l10.94-24.46"/>
      <path class="cls-7" d="M177.87,48.87c-3.79,8.5-13.21,28.61-13.21,28.61,0-1.6-.31-2.18-.7-2.78l11.65-26.04s1.04-.01,1.28.02c.47.03.97.19.97.19Z"/>
      <path class="cls-7" d="M167.27,79.93c3.79-8.5,9.98-18.61,13.76-27.11,0,0-.16-1.25-1.1-2.47-5.09,10.29-15.35,31.06-15.35,31.06-.07.44-.62,1.1-.62,1.1l-.6,1.33c1.9-.76,3.91-3.91,3.91-3.91Z"/>
      <path class="cls-7" d="M173.43,48.66c-3.79,8.5-7.28,16.25-11.07,24.75-.35-.12-.67-.22-1.2-.27-.33-.03-.76-.04-1.02-.02,3.65-8.15,7.3-16.31,10.94-24.46"/>
    </g>
    <text class="cls-4" transform="translate(125.9 39.6) scale(.99 1)"><tspan x="0" y="0">****</tspan></text>
    <text class="cls-4" transform="translate(31.94 39.62) scale(.99 1)"><tspan class="cls-1" x="0" y="0">P</tspan><tspan class="cls-2" x="6.5" y="0">A</tspan><tspan class="cls-6" x="13.62" y="0">S</tspan><tspan x="20.23" y="0">SW</tspan></text>
    <polygon class="cls-3" points="113.25 24.3 129.54 0 129.71 48.66 113.32 73.12 113.25 24.3"/>
    <g id="Layer_6" data-name="Layer 6">
      <polyline class="cls-8" points="113.43 24.22 113.32 73.12 62.91 73.12 62.91 24.46 78.85 .05 129.54 0"/>
    </g>
  </g>
</svg>