<svg xmlns="http://www.w3.org/2000/svg" viewBox="0 0 193.64 376.18" width="100" height="100" xmlns:v="https://vecta.io/nano">
    <g fill="none" stroke-width="12" stroke="#000" stroke-miterlimit="10">
        <path d="M56.2.04v375.5" />
        <path d="M31.1.04v375.5" />
        <path d="M6 .04v375.5" />
        <path d="M63.58 220.77c62.39 0 112.88-48 112.88-107.4S132 6 69.58 6" />
        <path d="M69.58,43.91c40.37,0,73,31.08,73,69.5S110,182.9,69.58,182.9" />
        <path d="M69.58 147.14c19.6 0 35.46-15.09 35.46-33.73S89.18 79.67 69.58 79.67" />
        <path d="M72.28 220.82c130.24 0 114.79 134.44 114.79 155.29" />
        <path d="M159.11 376.11c0-23.74 10.85-127.26-87.82-127.26" />
        <path d="M71.29 276.85c66.75 0 59.82 87 59.68 99.26" />
    </g>
    <path d="M69.58,105.47a7.4,7.4,0,0,1,0,14.8" stroke="#000" stroke-miterlimit="10" stroke-width="8.42" />
</svg>