<?xml version="1.0" encoding="UTF-8"?>
<svg id="Layer_2" data-name="Layer 2" xmlns="http://www.w3.org/2000/svg" viewBox="-10 0 144.85 175.58">
  <defs>
    <style>
      .cls-1 {
        fill: #fff;
      }
    </style>
  </defs>
  <g id="SQL">
    <g>
      <path class="cls-1" d="M56.78.16C40.51-.11,2.94,6.08.96,26.33c-3.07,31.35,2.44,67.64,0,99.53,1.56,15.92,24.37,22.53,37.79,24.74,18.39,3.03,38.08,2.96,56.18-1.59,10.81-2.72,28.58-9.42,30.13-22.15-2.18-32.1,2.82-67.83.02-99.49C123.36,7.97,94.22,2.1,78.38.26"/>
      <path d="M78.38.26c15.84,1.84,44.98,7.71,46.7,27.1,2.8,31.66-2.2,67.39-.02,99.49-1.55,12.72-19.32,19.43-30.13,22.15-18.11,4.56-37.79,4.63-56.18,1.6-13.41-2.21-36.23-8.82-37.79-24.74,2.44-31.89-3.07-68.18,0-99.53C2.94,6.08,40.51-.11,56.78.16c3.19,0,7.31-.18,11.16-.16,3.59.02,7.08.11,10.44.26ZM46.92,10.79c-20.92,2.01-57.45,16.44-17.44,29.14,19.82,6.29,52.24,6.2,71.65-1.58,17.58-7.05,18.17-15,.31-22.2-15.4-6.21-38.05-6.94-54.52-5.36ZM114.79,43.29c-31.02,15.51-72.57,15.6-103.53,0v18.96c15.41,15.57,45.38,17.18,66.11,14.85,12.98-1.46,28.48-4.71,37.42-14.85v-18.96ZM114.79,77.12c-32.18,14.86-71.35,14.85-103.53,0v17.94c0,2.17,6.64,6.59,8.69,7.71,19.58,10.71,59.06,10.46,79.74,2.82,3.18-1.18,15.09-7.1,15.09-10.53v-17.94ZM114.79,109.92c-30.6,15.58-72.83,15.62-103.53,0v16.91c0,.4,4.81,4.79,5.81,5.47,19.58,13.37,72.36,13.36,91.91,0,1-.68,5.81-5.07,5.81-5.47v-16.91Z"/>
      <path class="cls-1" d="M46.92,10.79c16.47-1.58,39.12-.86,54.52,5.36,17.86,7.21,17.27,15.16-.31,22.2-19.41,7.78-51.82,7.87-71.65,1.58-40.01-12.69-3.48-27.12,17.44-29.14Z"/>
      <path class="cls-1" d="M114.79,43.29v18.96c-8.94,10.15-24.44,13.4-37.42,14.85-20.73,2.33-50.69.71-66.11-14.85v-18.96c30.96,15.6,72.5,15.51,103.53,0Z"/>
      <path class="cls-1" d="M114.79,77.12v17.94c0,3.43-11.91,9.36-15.09,10.53-20.68,7.64-60.16,7.89-79.74-2.82-2.04-1.12-8.69-5.54-8.69-7.71v-17.94c32.17,14.85,71.35,14.86,103.53,0Z"/>
      <path class="cls-1" d="M114.79,109.92v16.91c0,.4-4.81,4.79-5.81,5.47-19.55,13.36-72.34,13.37-91.91,0-1-.68-5.81-5.07-5.81-5.47v-16.91c30.69,15.62,72.92,15.58,103.53,0Z"/>
    </g>
  </g>
</svg>