<?xml version="1.0" encoding="UTF-8"?>
<svg id="Layer_2" data-name="Layer 2" xmlns="http://www.w3.org/2000/svg" viewBox="0 0 183.5 123.35">
  <defs>
    <style>
      .cls-1 {
        opacity: .56;
      }

      .cls-1, .cls-2 {
        fill: #231f20;
      }

      .cls-3 {
        fill: #383838;
      }

      .cls-4 {
        fill: #f2f203;
      }

      .cls-5 {
        fill: #b7f4f9;
      }

      .cls-6 {
        fill: #b0ade0;
      }
    </style>
  </defs>
  <g id="WeatherTracker">
    <g id="Sun">
      <circle class="cls-4" cx="121.83" cy="61.67" r="61.67"/>
    </g>
    <g id="Cloud">
      <path class="cls-5" d="M135.34,51.34c-7.71,0-14.86,2.43-20.73,6.56-4.91-14.96-18.99-25.75-35.59-25.75-20.52,0-37.19,16.5-37.45,36.95-3.88-1.96-8.27-3.06-12.91-3.06-15.83,0-28.66,12.83-28.66,28.66s12.34,28.17,27.75,28.64h108.75c.06,0,.12,0,.18,0,19.26-.71,34.67-16.55,34.67-35.98s-16.12-36.01-36.01-36.01Z"/>
    </g>
    <g id="Bino-Shadow">
      <path class="cls-6" d="M55.49,82.53s.67-13.07,13-13.57c1.79-.07,3.56.41,5.07,1.37,2.27,1.44,6.18,4.06,7.28,5.43.21.26.52.41.85.37l19.69-2.33s6.1-3.78,9.43-2.72c3.33,1.06,15.7,7.34,17.67,12.58,0,0,6.82-.05,13.2,9.33,0,0,9.63,12.1-2.66,21.2-3.08,2.28-6.94,3.22-10.66,2.46-2.6-.53-5.73-1.77-8.95-4.41l-5.86-7.15s-5.05-8.32-6.3-8.4c-.88-.06-8.19-1.01-7.66,1.39s2.02,16.16-12.52,19.73c-11.63,1.72-19.28-11.77-19.28-11.77-2.47-5.37-1.93-5.44-1.93-5.44,0,0-5.97-7.2-6.75-9.27-1.93-5.17-3.63-8.78-3.63-8.78Z"/>
      <ellipse class="cls-3" cx="132.28" cy="104.16" rx="10.94" ry="10.75" transform="translate(8.73 218.54) rotate(-81.01)"/>
      <ellipse class="cls-3" cx="87.06" cy="103.94" rx="10.94" ry="10.75" transform="translate(-29.21 173.69) rotate(-81.01)"/>
      <path class="cls-3" d="M83.46,75.83s4.48-9.2,13.56-4.73c0,0,3.38,1.84,3.71,2.66s-17.28,2.07-17.28,2.07Z"/>
      <path class="cls-1" d="M87.12,82.48l11.77-1.61c3.44-.47,6.93-.43,10.35.11l9.85,1.56c.31.05.41.44.16.63-2.41,1.83-10.6,8.34-11.93,13.56-2.32-.33-7.3-.63-7.71.83,0,0-5.66-10.87-12.56-14.74-.15-.09-.11-.31.06-.34Z"/>
      <ellipse class="cls-3" cx="103.77" cy="93.41" rx="2.59" ry="2.54" transform="translate(-4.71 181.31) rotate(-81.01)"/>
      <ellipse class="cls-2" cx="104.13" cy="93.72" rx="2.59" ry="2.54" transform="translate(-4.71 181.92) rotate(-81.01)"/>
      <text/>
    </g>
  </g>
</svg>