<?xml version="1.0" encoding="UTF-8"?>
<svg id="Layer_2" data-name="Layer 2" xmlns="http://www.w3.org/2000/svg" viewBox="0 0 542.96 172.79">
  <g id="Layer_1-2" data-name="Layer 1">
    <rect width="80.27" height="80.27" fill="#69a963"/>
    <rect x="92.54" width="80.27" height="80.27" fill="#69a963"/>
    <rect x="185.08" width="80.27" height="80.27" fill="#69a963"/>
    <rect x="277.61" width="80.27" height="80.27" fill="#69a963"/>
    <rect x="370.15" width="80.27" height="80.27" fill="#69a963"/>
    <rect x="462.69" width="80.27" height="80.27" fill="#69a963"/>
    <rect x="46.28" y="92.52" width="80.27" height="80.27" fill="#69a963"/>
    <rect x="138.82" y="92.52" width="80.27" height="80.27" fill="#69a963"/>
    <rect x="231.36" y="92.52" width="80.27" height="80.27" fill="#69a963"/>
    <rect x="323.89" y="92.52" width="80.27" height="80.27" fill="#69a963"/>
    <rect x="416.43" y="92.52" width="80.27" height="80.27" fill="#69a963"/>
    <path d="M24.04,21.72l5.83,25.08h.1l6.4-25.08h7.58l6.29,25.38h.1l6.04-25.38h7.95l-9.91,36.84h-8.05l-6.24-25.07h-.1l-6.14,25.07h-8.2L15.94,21.72h8.1Z"/>
    <path d="M150.78,40.29c0,10.73-6.86,19.14-18.11,19.14s-18.11-8.41-18.11-19.14,6.81-19.45,18.11-19.45,18.11,8.31,18.11,19.45ZM132.67,52.62c6.86,0,10.01-5.62,10.01-12.33,0-7.07-3.15-12.64-10.06-12.64s-9.96,5.52-9.96,12.64,3.25,12.33,10.01,12.33Z"/>
    <path d="M231.76,21.72c6.5,0,10.78,4.49,10.78,10.16,0,4.64-1.96,7.69-5.83,9.24v.1c5.16,1.44,5.31,7.12,5.47,10.58.15,3.51.52,5.47,1.44,6.76h-8.1c-.62-1.55-.83-3.77-1.03-6.4-.41-5.16-1.24-8-6.35-8h-8.15v14.39h-8.1V21.72h19.86ZM228.92,38.38c3.41,0,5.52-1.39,5.52-5.26,0-3.66-2.01-5.11-5.57-5.11h-8.87v10.37h8.93Z"/>
    <path d="M323.38,21.72c10.22,0,16.82,6.6,16.82,18.21s-6.29,18.63-16.61,18.63h-15.99V21.72h15.79ZM322.86,51.75c5.06,0,9.24-3.15,9.24-11.09,0-8.77-3.87-12.12-10.63-12.12h-5.78v23.22h7.17Z"/>
    <path d="M405.36,21.72v30.03h17.96v6.81h-26.06V21.72h8.1Z"/>
    <path d="M518.07,21.72v6.81h-19.45v7.89h17.85v6.29h-17.85v9.03h19.86v6.81h-27.96V21.72h27.55Z"/>
    <path d="M104.75,126.43h-8.08c-.58-3.72-4.15-6.64-8.29-6.64-6.8,0-10.31,5.37-10.31,13.02,0,7.12,3.35,12.7,10.31,12.7,4.78,0,7.92-3.08,8.61-8.5h8.08c-.85,9.57-7.39,15.52-16.69,15.52-11.58,0-18.65-8.61-18.65-19.71s6.91-20.03,18.65-20.03c8.5,0,15.41,5.1,16.37,13.66Z"/>
    <path d="M173.88,113.68v30.93h18.49v7.01h-26.84v-37.94h8.34Z"/>
    <path d="M290.14,132.81c0,11.05-7.07,19.71-18.65,19.71s-18.65-8.66-18.65-19.71,7.02-20.03,18.65-20.03,18.65,8.55,18.65,20.03ZM271.49,145.51c7.07,0,10.31-5.79,10.31-12.7,0-7.28-3.24-13.02-10.36-13.02s-10.26,5.69-10.26,13.02,3.35,12.7,10.31,12.7Z"/>
    <path d="M356.3,113.68l15.84,25.45h.11v-25.45h7.81v37.94h-8.34l-15.78-25.4h-.11v25.4h-7.81v-37.94h8.29Z"/>
    <path d="M470.55,113.68v7.01h-20.03v8.13h18.39v6.48h-18.39v9.3h20.46v7.01h-28.8v-37.94h28.38Z"/>
  </g>
</svg>